<?xml version="1.0" encoding="utf-8"?>
<!-- Generator: Adobe Illustrator 23.1.1, SVG Export Plug-In . SVG Version: 6.00 Build 0)  -->
<svg version="1.1" id="Layer_1" xmlns="http://www.w3.org/2000/svg" xmlns:xlink="http://www.w3.org/1999/xlink" x="0px" y="0px"
	 viewBox="0 0 650 530" style="enable-background:new 0 0 650 530;" xml:space="preserve">
<style type="text/css">
	.st0{fill:url(#SVGID_1_);}
	.st1{fill:url(#SVGID_2_);}
	.st2{fill:url(#SVGID_3_);}
	.st3{fill:url(#SVGID_4_);}
	.st4{fill:url(#SVGID_5_);}
	.st5{fill:url(#SVGID_6_);}
	.st6{fill:url(#SVGID_7_);}
	.st7{fill:url(#SVGID_8_);}
	.st8{fill:url(#SVGID_9_);}
	.st9{fill:url(#SVGID_10_);}
	.st10{fill:none;stroke:url(#SVGID_11_);stroke-miterlimit:10;}
	.st11{fill:url(#SVGID_12_);}
	.st12{fill:url(#SVGID_13_);}
	.st13{fill:url(#SVGID_14_);}
	.st14{fill:url(#SVGID_15_);}
	.st15{fill:url(#SVGID_16_);}
	.st16{fill:url(#SVGID_17_);}
	.st17{fill:url(#SVGID_18_);}
	.st18{fill:url(#SVGID_19_);}
	.st19{fill:url(#SVGID_20_);}
	.st20{fill:url(#SVGID_21_);}
	.st21{fill:none;stroke:url(#SVGID_22_);stroke-width:2;stroke-miterlimit:10;}
	.st22{fill:none;stroke:url(#SVGID_23_);stroke-width:2;stroke-miterlimit:10;}
	.st23{fill:none;stroke:url(#SVGID_24_);stroke-width:2;stroke-miterlimit:10;}
	.st24{fill:none;stroke:url(#SVGID_25_);stroke-width:2;stroke-miterlimit:10;}
	.st25{fill:none;stroke:url(#SVGID_26_);stroke-width:2;stroke-miterlimit:10;}
	.st26{fill:none;stroke:url(#SVGID_27_);stroke-miterlimit:10;}
	.st27{fill:none;stroke:#1F1844;stroke-miterlimit:10;}
	.st28{fill:url(#SVGID_28_);}
	.st29{fill:url(#SVGID_29_);}
	.st30{fill:none;stroke:url(#SVGID_30_);stroke-miterlimit:10;}
	.st31{fill:#1F1844;}
	.st32{fill:url(#SVGID_31_);}
	.st33{opacity:0.5;fill:#BFC3DB;enable-background:new    ;}
	.st34{opacity:0.5;fill:#BBBFD9;enable-background:new    ;}
	.st35{fill:url(#SVGID_32_);}
	.st36{fill:url(#SVGID_33_);}
	.st37{fill:url(#SVGID_34_);}
	.st38{fill:url(#SVGID_35_);}
	.st39{fill:url(#SVGID_36_);}
	.st40{fill:url(#SVGID_37_);}
	.st41{fill:url(#SVGID_38_);}
	.st42{fill:url(#SVGID_39_);}
	.st43{fill:none;stroke:#FFFFFF;stroke-miterlimit:10;}
	.st44{fill:url(#SVGID_40_);}
	.st45{fill:none;stroke:url(#SVGID_41_);stroke-miterlimit:10;}
	.st46{fill:none;stroke:url(#SVGID_42_);stroke-miterlimit:10;}
	.st47{fill:#C8CCE0;}
	.st48{fill:#FFFFFF;}
	.st49{fill:url(#SVGID_43_);}
	.st50{fill:#D5527E;}
	.st51{fill:url(#SVGID_44_);}
	.st52{fill:url(#SVGID_45_);}
	.st53{fill:url(#SVGID_46_);}
	.st54{fill:none;stroke:#FFFFFF;stroke-width:0.68;stroke-miterlimit:10;}
	.st55{fill:none;stroke:#FFFFFF;stroke-width:0.65;stroke-miterlimit:10;}
	.st56{fill:url(#SVGID_47_);}
	.st57{fill:url(#SVGID_48_);}
	.st58{fill:url(#SVGID_49_);}
	.st59{fill:url(#SVGID_50_);}
	.st60{fill:url(#SVGID_51_);}
	.st61{fill:url(#SVGID_52_);}
	.st62{fill:none;stroke:url(#SVGID_53_);stroke-width:0.98;stroke-miterlimit:10;}
	.st63{fill:url(#SVGID_54_);}
	.st64{fill:url(#SVGID_55_);}
	.st65{fill:url(#SVGID_56_);}
	.st66{fill:url(#SVGID_57_);}
	.st67{fill:url(#SVGID_58_);}
	.st68{fill:url(#SVGID_59_);}
	.st69{fill:url(#SVGID_60_);}
	.st70{fill:#CF507A;}
	.st71{fill:url(#SVGID_61_);}
	.st72{fill:url(#SVGID_62_);}
	.st73{fill:url(#SVGID_63_);}
	.st74{fill:url(#SVGID_64_);}
	.st75{fill:url(#SVGID_65_);}
	.st76{fill:url(#SVGID_66_);}
	.st77{fill:url(#SVGID_67_);}
	.st78{fill:url(#SVGID_68_);}
	.st79{fill:url(#SVGID_69_);}
	.st80{fill:#2D2E64;}
	.st81{fill:url(#SVGID_70_);}
	.st82{fill:none;stroke:url(#SVGID_71_);stroke-width:4.15;stroke-miterlimit:10;}
	.st83{fill:url(#SVGID_72_);}
</style>
<title>1</title>
<linearGradient id="SVGID_1_" gradientUnits="userSpaceOnUse" x1="619.3831" y1="753.1518" x2="491.8831" y2="696.1518" gradientTransform="matrix(1 0 0 1 0 -428)">
	<stop  offset="1.000000e-02" style="stop-color:#BBBFD9"/>
	<stop  offset="0.29" style="stop-color:#CACDE2"/>
	<stop  offset="0.84" style="stop-color:#F2F3F8"/>
	<stop  offset="1" style="stop-color:#FFFFFF"/>
</linearGradient>
<path class="st0" d="M557.1,221.4l59.6,15.3c17.2,4.4,27.6,22,23.2,39.2c-0.3,1-0.6,2-0.9,3l-41.5,114.5l-141.6-53.5L513,214.4
	L557.1,221.4z"/>
<linearGradient id="SVGID_2_" gradientUnits="userSpaceOnUse" x1="484.9762" y1="742.7004" x2="459.1662" y2="727.0204" gradientTransform="matrix(1 0 0 1 0 -428)">
	<stop  offset="0.32" style="stop-color:#9C9C9C"/>
	<stop  offset="0.5" style="stop-color:#ABABAB"/>
	<stop  offset="0.86" style="stop-color:#D3D3D3"/>
	<stop  offset="0.91" style="stop-color:#D9D9D9"/>
</linearGradient>
<path class="st1" d="M482.8,268c-6.1,8.6-11.2,17.9-15,27.8c-6,15.8-23.4,39.7-23.4,39.7l19.2,7.2c0,0,17.4-29.5,19.2-36.9
	S482.8,268,482.8,268z"/>
<linearGradient id="SVGID_3_" gradientUnits="userSpaceOnUse" x1="463.6" y1="747.0641" x2="589.6502" y2="747.0641" gradientTransform="matrix(1 0 0 1 0 -428)">
	<stop  offset="9.000000e-02" style="stop-color:#D9D9D9"/>
	<stop  offset="0.12" style="stop-color:#D6D6D6"/>
	<stop  offset="0.7" style="stop-color:#AEAEAE"/>
	<stop  offset="1" style="stop-color:#9F9F9F"/>
</linearGradient>
<path class="st2" d="M463.6,342.7l69.1,26.1l41.8,15.8c0,0,14-1.8,15-10.3s-3-81.5-11.8-98s-30.5-20.4-30.5-20.4s-16.8,13.2-26.8,12
	s-6.6-12-6.6-12l-10.9-2.3l-12.6,2.4l-7.6,11.9L463.6,342.7z"/>
<linearGradient id="SVGID_4_" gradientUnits="userSpaceOnUse" x1="286.97" y1="712.8933" x2="305.64" y2="712.8933" gradientTransform="matrix(1 0 0 1 0 -428)">
	<stop  offset="0" style="stop-color:#753200"/>
	<stop  offset="1" style="stop-color:#A04400"/>
</linearGradient>
<path class="st3" d="M287,280.1c0,0,7,20.8,15.1,19.5c0-4.7,3.6-17.7,3.6-17.7l-4.8-11.7L287,280.1z"/>
<linearGradient id="SVGID_5_" gradientUnits="userSpaceOnUse" x1="353.325" y1="740.2181" x2="350.185" y2="712.668" gradientTransform="matrix(1 0 0 1 0 -428)">
	<stop  offset="0" style="stop-color:#464B8B"/>
	<stop  offset="0.28" style="stop-color:#393C76"/>
	<stop  offset="0.74" style="stop-color:#27275A"/>
	<stop  offset="1" style="stop-color:#201F4F"/>
</linearGradient>
<polygon class="st4" points="305.2,272.5 299.6,305.8 406.6,316.6 402,274.4 "/>
<linearGradient id="SVGID_6_" gradientUnits="userSpaceOnUse" x1="330.1" y1="625.2662" x2="380.6" y2="625.2662" gradientTransform="matrix(1 0 0 1 0 -428)">
	<stop  offset="9.000000e-02" style="stop-color:#E6E6E6"/>
	<stop  offset="1" style="stop-color:#DEDEDE"/>
</linearGradient>
<path class="st5" d="M380.6,283.4c-3.7,0.5-40,0.1-50.5-1.4c1.6-11.6,9.6-68.5,10.2-89.3c0.3-10.3,0.6-23.4,0.5-34.9v-2
	c0-0.6,0-1.2,0-1.7c0-0.2,0-0.4,0-0.5c0-0.4,0-0.8,0-1.1c0-0.9,0-1.8-0.1-2.6s0-1.6-0.1-2.4c-0.1-1.6-0.2-3-0.2-4.4
	c0-0.5-0.1-1-0.1-1.5l-0.1-0.8c0-0.3,0-0.5-0.1-0.8s0-0.6-0.1-0.9s0-0.4-0.1-0.7c-0.1-0.7-0.1-1.3-0.2-1.8c0-0.2,0-0.3-0.1-0.5
	c-0.1-0.8-0.2-1.4-0.4-2l-0.2-0.7c0-0.2-0.1-0.3-0.1-0.5s-0.1-0.3-0.2-0.4c0-0.1-0.1-0.3-0.2-0.4c0-0.1,0-0.1-0.1-0.2
	c0-0.1-0.1-0.1-0.1-0.1l0,0l-2.2-20.8c0.8,0,1.6,0,2.4,0c0,0,21.7,0.5,30.6,0.1c1.7,5.5,3.6,12.9,2.1,15.3c-2.3,3.7-6.5,4.3-3.8,12
	l0,0c0,0.1-0.1,0.2-0.1,0.3s-0.1,0.2-0.1,0.4c0,0.1-0.1,0.2-0.1,0.4l-0.1,0.4C365.6,146.4,380.4,281.8,380.6,283.4z"/>
<linearGradient id="SVGID_7_" gradientUnits="userSpaceOnUse" x1="259.3964" y1="631.3141" x2="340.7893" y2="631.3141" gradientTransform="matrix(1 0 0 1 0 -428)">
	<stop  offset="0" style="stop-color:#201F4F"/>
	<stop  offset="0.26" style="stop-color:#27275A"/>
	<stop  offset="0.72" style="stop-color:#393C76"/>
	<stop  offset="1" style="stop-color:#464B8B"/>
</linearGradient>
<path class="st6" d="M340.3,192.7c-0.6,20.8-10,88.4-11.7,99.9c-9.7-1.4-19.2-3.7-28.5-6.8l-0.5-105l-10.5,26.1l12.9,62.5l-18.3,13
	c-9.4,3.5-25.2-61.2-24.4-75.8c0.8-14.4,27.6-67.7,36.6-78.1c5.5-6.3,19.9-11.4,30.4-14.4l-10.3,27c0,0,8.9,2.6,10.9-2
	s7.1-10,10.9-8c0.1,0,0.1,0.1,0.2,0.1c0.1,0.1,0.1,0.1,0.2,0.2c0.1,0.1,0.1,0.1,0.1,0.2l0,0l0.1,0.1c0,0,0.1,0.1,0.1,0.2
	c0.1,0.1,0.1,0.2,0.2,0.4c0.1,0.1,0.1,0.3,0.2,0.4c0,0.1,0.1,0.3,0.1,0.5l0.2,0.7c0.1,0.6,0.3,1.3,0.4,2c0,0.2,0,0.3,0.1,0.5
	c0.1,0.6,0.2,1.2,0.2,1.8c0,0.2,0,0.4,0.1,0.7l0.1,0.9c0,0.2,0,0.5,0.1,0.8l0.1,0.8c0,0.5,0.1,1,0.1,1.5c0.1,1.4,0.2,2.9,0.2,4.4
	c0,0.8,0.1,1.6,0.1,2.4s0,1.8,0.1,2.6c0,0.4,0,0.8,0,1.1c0,0.2,0,0.4,0,0.5v1.7v2C340.9,169.3,340.6,182.4,340.3,192.7z"/>
<linearGradient id="SVGID_8_" gradientUnits="userSpaceOnUse" x1="366.9117" y1="631.1641" x2="493.0713" y2="631.1641" gradientTransform="matrix(1 0 0 1 0 -428)">
	<stop  offset="0" style="stop-color:#464B8B"/>
	<stop  offset="0.28" style="stop-color:#393C76"/>
	<stop  offset="0.74" style="stop-color:#27275A"/>
	<stop  offset="1" style="stop-color:#201F4F"/>
</linearGradient>
<path class="st7" d="M492.7,252.5L482,269.3c-1.1,1.7-3.3,2.1-4.9,1.1c-0.1-0.1-0.2-0.2-0.3-0.2l-49.5-40.5l-25.6-36.5l6.2,91.2
	c0,0,0.5,3.6-26.4,7.5c-0.2-1.6-15.9-145.5-14.5-152.1l0.1-0.4c0-0.1,0.1-0.3,0.1-0.4c0-0.1,0.1-0.2,0.1-0.4c0-0.1,0.1-0.2,0.1-0.3
	l0,0c0.1-0.2,0.1-0.3,0.2-0.5c0-0.1,0.1-0.2,0.1-0.2l0.2-0.3c0.1-0.1,0.1-0.2,0.2-0.3s0.1-0.2,0.2-0.2l0,0c0.1-0.1,0.1-0.1,0.2-0.2
	c0.1-0.1,0.1-0.1,0.2-0.2c0.2-0.2,0.4-0.3,0.7-0.4l0.3-0.1c0.3-0.1,0.5-0.2,0.8-0.2c0.2,0,0.3,0,0.5,0c1.1,0,2.2,0.3,3.2,0.9
	l-3.1-6.8l23.8,4.5l-11.6-19.8c11.8,5.1,27.2,15.1,30.9,25.3c5.3,15,33.2,66.8,33.2,66.8l44.8,42.6
	C493.2,250.1,493.3,251.4,492.7,252.5z"/>
<linearGradient id="SVGID_9_" gradientUnits="userSpaceOnUse" x1="81.4679" y1="725.0681" x2="194.9679" y2="685.0681" gradientTransform="matrix(1 0 0 1 0 -428)">
	<stop  offset="1.000000e-02" style="stop-color:#BBBFD9"/>
	<stop  offset="0.29" style="stop-color:#CACDE2"/>
	<stop  offset="0.84" style="stop-color:#F2F3F8"/>
	<stop  offset="1" style="stop-color:#FFFFFF"/>
</linearGradient>
<path class="st8" d="M95.5,217.4c-18.7,6.4-32.2,31.3-24.7,54.7L95,347.5l134.2-27.7l-59.6-111.3L95.5,217.4z"/>
<linearGradient id="SVGID_10_" gradientUnits="userSpaceOnUse" x1="328.043" y1="572.8304" x2="326.923" y2="550.2104" gradientTransform="matrix(1 0 0 1 0 -428)">
	<stop  offset="0" style="stop-color:#464B8B"/>
	<stop  offset="0.28" style="stop-color:#393C76"/>
	<stop  offset="0.74" style="stop-color:#27275A"/>
	<stop  offset="1" style="stop-color:#201F4F"/>
</linearGradient>
<path class="st9" d="M339.4,136.7c0-0.1-0.1-0.1-0.1-0.2c-0.1-0.1-0.1-0.1-0.2-0.2c-0.1-0.1-0.1-0.1-0.2-0.1c-3.8-2-8.9,3.3-10.9,8
	s-11.9-3-11.9-3l11.5-22.1l1.2-3.1l8.4-7.6v8.4l1.3,14.9L339.4,136.7z"/>
<linearGradient id="SVGID_11_" gradientUnits="userSpaceOnUse" x1="381.0269" y1="719.9317" x2="382.0067" y2="719.7917" gradientTransform="matrix(1 0 0 1 0 -428)">
	<stop  offset="0" style="stop-color:#BDBDBD"/>
	<stop  offset="0.55" style="stop-color:#CCCCCC"/>
	<stop  offset="0.91" style="stop-color:#D9D9D9"/>
</linearGradient>
<path class="st10" d="M381.5,291.9L381.5,291.9"/>
<linearGradient id="SVGID_12_" gradientUnits="userSpaceOnUse" x1="366.54" y1="551.0141" x2="397.5547" y2="551.0141" gradientTransform="matrix(1 0 0 1 0 -428)">
	<stop  offset="0" style="stop-color:#464B8B"/>
	<stop  offset="0.28" style="stop-color:#393C76"/>
	<stop  offset="0.74" style="stop-color:#27275A"/>
	<stop  offset="1" style="stop-color:#201F4F"/>
</linearGradient>
<path class="st11" d="M374.9,133.5l1.3,4.9c-2.8-0.9-6.1-2-7.8,0l0,0c-0.4,0.4-0.7,0.9-0.9,1.5c-2.7-7.6,1.5-8.3,3.8-12
	c1.5-2.5-0.3-9.9-2.1-15.3c-1.2-3.6-2.2-6.4-2.2-6.4l10.9,1.4l5.6,8.4l13.8,19c0.5,0.6,0.3,1.5-0.3,2c-0.3,0.2-0.7,0.3-1.1,0.2
	L374.9,133.5z"/>
<linearGradient id="SVGID_13_" gradientUnits="userSpaceOnUse" x1="366.54" y1="549.4141" x2="396.7587" y2="549.4141" gradientTransform="matrix(1 0 0 1 0 -428)">
	<stop  offset="0" style="stop-color:#201F4F"/>
	<stop  offset="0.26" style="stop-color:#27275A"/>
	<stop  offset="0.72" style="stop-color:#393C76"/>
	<stop  offset="1" style="stop-color:#464B8B"/>
</linearGradient>
<path class="st12" d="M373.3,131.7l1,4.9c-1-0.5-2.1-0.8-3.2-0.9c-0.2,0-0.3,0-0.5,0c-0.3,0-0.6,0.1-0.8,0.2l-0.3,0.1
	c-0.2,0.1-0.5,0.2-0.7,0.4c-0.1,0.1-0.2,0.1-0.2,0.2c-0.1,0.1-0.2,0.1-0.2,0.2l0,0c-0.1,0.1-0.1,0.1-0.2,0.2
	c-0.1,0.1-0.1,0.2-0.2,0.3l-0.2,0.3c0,0.1-0.1,0.2-0.1,0.2c-0.1,0.2-0.2,0.3-0.2,0.5c-2.7-7.6,1.5-8.3,3.8-12
	c1.5-2.5-0.3-9.9-2.1-15.3c-1.2-3.6-2.2-6.4-2.2-6.4l10.9,1.4l5.6,8.4l13.1,19.5c0.4,0.6,0.2,1.4-0.4,1.8c-0.3,0.2-0.6,0.2-1,0.2
	L373.3,131.7z"/>
<linearGradient id="SVGID_14_" gradientUnits="userSpaceOnUse" x1="-2444.5776" y1="662.1193" x2="-2359.1077" y2="622.5593" gradientTransform="matrix(-0.99 0.1 0.1 0.99 -2065.4666 -321.2764)">
	<stop  offset="0" style="stop-color:#753200"/>
	<stop  offset="1" style="stop-color:#A04400"/>
</linearGradient>
<path class="st13" d="M337,115.2c0.1-2.4,0.6-8.4,0.8-15.5c0.1-4.9,0.3-9.9,0.4-13.9c0-0.3,0-0.7,0-1c0.1-2.1,0-4.2-0.2-6.3
	c-0.1-0.1-0.2-0.2-0.3-0.4c-7.5-10.7-7.2-18.3-3.1-21.2c0.5-0.4,1.1-0.7,1.8-0.9l0,0c0,0-3.2-14.3,1.5-26.5
	c6.2-16.2,28.4-18.7,42.4-16.1s27.5,17.7,24.4,33.2c-1.2,6.2-3.5,11.9-3.6,17.4s3,14.4-0.2,23.7c-4.7,13.3-18.1,18.1-26.5,19
	c-1.1,0.1-2.2,0.1-3.2,0.1l-0.1,2.3L371,111l-0.1,2c-0.3,4.6-0.7,5.7-0.7,5.7c-2.3,6.4-8.6,10.4-15.4,9.8
	C342.7,127.7,336.7,120.9,337,115.2z"/>
<linearGradient id="SVGID_15_" gradientUnits="userSpaceOnUse" x1="-2358.6184" y1="645.0298" x2="-2388.8384" y2="674.6898" gradientTransform="matrix(-0.99 0.1 0.1 0.99 -2065.4666 -321.2764)">
	<stop  offset="0" style="stop-color:#A04400"/>
	<stop  offset="1" style="stop-color:#753200"/>
</linearGradient>
<path class="st14" d="M338.2,85.8c9.1,16.6,22.5,22.6,32.7,25.1l0.1-1.9l0.1-2.3c-9.7-4.1-21-12.4-33.4-28.6
	c0.1,0.1,0.2,0.2,0.3,0.4c0.2,2.1,0.2,4.2,0.2,6.3C338.3,85.2,338.3,85.5,338.2,85.8z"/>
<linearGradient id="SVGID_16_" gradientUnits="userSpaceOnUse" x1="-2358.7881" y1="623.831" x2="-2362.688" y2="627.661" gradientTransform="matrix(-0.99 0.1 0.1 0.99 -2065.4666 -321.2764)">
	<stop  offset="0" style="stop-color:#753200"/>
	<stop  offset="1" style="stop-color:#A04400"/>
</linearGradient>
<path class="st15" d="M341.5,62.9c0,0-2.8-4.2-5-1.2c-2.2,3,0.9,8.5,0.9,8.5L341.5,62.9z"/>
<linearGradient id="SVGID_17_" gradientUnits="userSpaceOnUse" x1="332.57" y1="588.4641" x2="339.38" y2="588.4641" gradientTransform="matrix(1 0 0 1 0 -428)">
	<stop  offset="0" style="stop-color:#464B8B"/>
	<stop  offset="0.28" style="stop-color:#393C76"/>
	<stop  offset="0.74" style="stop-color:#27275A"/>
	<stop  offset="1" style="stop-color:#201F4F"/>
</linearGradient>
<circle class="st16" cx="336" cy="160.5" r="3.4"/>
<linearGradient id="SVGID_18_" gradientUnits="userSpaceOnUse" x1="331.88" y1="616.9641" x2="338.68" y2="616.9641" gradientTransform="matrix(1 0 0 1 0 -428)">
	<stop  offset="0" style="stop-color:#464B8B"/>
	<stop  offset="0.28" style="stop-color:#393C76"/>
	<stop  offset="0.74" style="stop-color:#27275A"/>
	<stop  offset="1" style="stop-color:#201F4F"/>
</linearGradient>
<circle class="st17" cx="335.3" cy="189" r="3.4"/>
<linearGradient id="SVGID_19_" gradientUnits="userSpaceOnUse" x1="329.18" y1="645.9641" x2="335.98" y2="645.9641" gradientTransform="matrix(1 0 0 1 0 -428)">
	<stop  offset="0" style="stop-color:#464B8B"/>
	<stop  offset="0.28" style="stop-color:#393C76"/>
	<stop  offset="0.74" style="stop-color:#27275A"/>
	<stop  offset="1" style="stop-color:#201F4F"/>
</linearGradient>
<circle class="st18" cx="332.6" cy="218" r="3.4"/>
<linearGradient id="SVGID_20_" gradientUnits="userSpaceOnUse" x1="325.78" y1="678.2641" x2="332.58" y2="678.2641" gradientTransform="matrix(1 0 0 1 0 -428)">
	<stop  offset="0" style="stop-color:#464B8B"/>
	<stop  offset="0.28" style="stop-color:#393C76"/>
	<stop  offset="0.74" style="stop-color:#27275A"/>
	<stop  offset="1" style="stop-color:#201F4F"/>
</linearGradient>
<circle class="st19" cx="329.2" cy="250.3" r="3.4"/>
<linearGradient id="SVGID_21_" gradientUnits="userSpaceOnUse" x1="320.67" y1="713.3641" x2="327.47" y2="713.3641" gradientTransform="matrix(1 0 0 1 0 -428)">
	<stop  offset="0" style="stop-color:#464B8B"/>
	<stop  offset="0.28" style="stop-color:#393C76"/>
	<stop  offset="0.74" style="stop-color:#27275A"/>
	<stop  offset="1" style="stop-color:#201F4F"/>
</linearGradient>
<circle class="st20" cx="324.1" cy="285.4" r="3.4"/>
<linearGradient id="SVGID_22_" gradientUnits="userSpaceOnUse" x1="370.4555" y1="584.3141" x2="378.4855" y2="584.3141" gradientTransform="matrix(1 0 0 1 0 -428)">
	<stop  offset="0" style="stop-color:#464B8B"/>
	<stop  offset="0.28" style="stop-color:#393C76"/>
	<stop  offset="0.74" style="stop-color:#27275A"/>
	<stop  offset="1" style="stop-color:#201F4F"/>
</linearGradient>
<line class="st21" x1="370.6" y1="157.1" x2="378.3" y2="155.6"/>
<linearGradient id="SVGID_23_" gradientUnits="userSpaceOnUse" x1="373.1088" y1="612.9141" x2="381.1488" y2="612.9141" gradientTransform="matrix(1 0 0 1 0 -428)">
	<stop  offset="0" style="stop-color:#464B8B"/>
	<stop  offset="0.28" style="stop-color:#393C76"/>
	<stop  offset="0.74" style="stop-color:#27275A"/>
	<stop  offset="1" style="stop-color:#201F4F"/>
</linearGradient>
<line class="st22" x1="373.3" y1="185.7" x2="381" y2="184.2"/>
<linearGradient id="SVGID_24_" gradientUnits="userSpaceOnUse" x1="377.0327" y1="642.9141" x2="385.3049" y2="642.9141" gradientTransform="matrix(1 0 0 1 0 -428)">
	<stop  offset="0" style="stop-color:#464B8B"/>
	<stop  offset="0.28" style="stop-color:#393C76"/>
	<stop  offset="0.74" style="stop-color:#27275A"/>
	<stop  offset="1" style="stop-color:#201F4F"/>
</linearGradient>
<line class="st23" x1="377.1" y1="215.3" x2="385.2" y2="214.6"/>
<linearGradient id="SVGID_25_" gradientUnits="userSpaceOnUse" x1="379.5428" y1="674.8641" x2="387.8272" y2="674.8641" gradientTransform="matrix(1 0 0 1 0 -428)">
	<stop  offset="0" style="stop-color:#464B8B"/>
	<stop  offset="0.28" style="stop-color:#393C76"/>
	<stop  offset="0.74" style="stop-color:#27275A"/>
	<stop  offset="1" style="stop-color:#201F4F"/>
</linearGradient>
<line class="st24" x1="379.6" y1="247.3" x2="387.7" y2="246.5"/>
<linearGradient id="SVGID_26_" gradientUnits="userSpaceOnUse" x1="383.4383" y1="711.3641" x2="392.0317" y2="711.3641" gradientTransform="matrix(1 0 0 1 0 -428)">
	<stop  offset="0" style="stop-color:#464B8B"/>
	<stop  offset="0.28" style="stop-color:#393C76"/>
	<stop  offset="0.74" style="stop-color:#27275A"/>
	<stop  offset="1" style="stop-color:#201F4F"/>
</linearGradient>
<line class="st25" x1="383.7" y1="284.4" x2="391.8" y2="282.4"/>
<linearGradient id="SVGID_27_" gradientUnits="userSpaceOnUse" x1="379.0673" y1="636.7775" x2="403.4745" y2="636.7775" gradientTransform="matrix(1 0 0 1 0 -428)">
	<stop  offset="0" style="stop-color:#201F4F"/>
	<stop  offset="0.26" style="stop-color:#27275A"/>
	<stop  offset="0.72" style="stop-color:#393C76"/>
	<stop  offset="1" style="stop-color:#464B8B"/>
</linearGradient>
<polyline class="st26" points="403.3,275.5 395,278 379.6,148.5 400,148.5 397.6,139.1 "/>
<line class="st27" x1="278" y1="269.2" x2="298.1" y2="256.1"/>
<line class="st27" x1="467.8" y1="258.4" x2="479.8" y2="240"/>
<linearGradient id="SVGID_28_" gradientUnits="userSpaceOnUse" x1="315.8853" y1="610.3739" x2="316.7753" y2="590.0739" gradientTransform="matrix(1 0 0 1 0 -428)">
	<stop  offset="0" style="stop-color:#201F4F"/>
	<stop  offset="0.26" style="stop-color:#27275A"/>
	<stop  offset="0.72" style="stop-color:#393C76"/>
	<stop  offset="1" style="stop-color:#464B8B"/>
</linearGradient>
<polygon class="st28" points="304.6,169.1 328.6,170.1 327.7,176.8 315,180.8 304,175.8 "/>
<linearGradient id="SVGID_29_" gradientUnits="userSpaceOnUse" x1="315.8851" y1="608.8739" x2="316.7751" y2="588.5839" gradientTransform="matrix(1 0 0 1 0 -428)">
	<stop  offset="0" style="stop-color:#464B8B"/>
	<stop  offset="0.28" style="stop-color:#393C76"/>
	<stop  offset="0.74" style="stop-color:#27275A"/>
	<stop  offset="1" style="stop-color:#201F4F"/>
</linearGradient>
<polygon class="st29" points="304.6,167.6 328.6,168.6 327.7,175.3 315,179.3 304,174.3 "/>
<linearGradient id="SVGID_30_" gradientUnits="userSpaceOnUse" x1="302.1524" y1="629.6457" x2="331.6364" y2="629.6457" gradientTransform="matrix(1 0 0 1 0 -428)">
	<stop  offset="0" style="stop-color:#464B8B"/>
	<stop  offset="0.28" style="stop-color:#393C76"/>
	<stop  offset="0.74" style="stop-color:#27275A"/>
	<stop  offset="1" style="stop-color:#201F4F"/>
</linearGradient>
<path class="st30" d="M302.6,123.4l2.9,29.9l25.5-0.2c-3.3,64.8-4.3,71.4-10.3,126.3l-15-3.4"/>
<path class="st31" d="M349.9,66.8l-0.5,3.8c8.6,4.9,26,19.1,29.7,19.6c4.7,0.7,6.3-4.7,8.8-3.5s2.2,4.6,3.9,4.6
	c0.9,0,7.9-3.9,9.8-6.3c0,0-2.4,7.8-3.1,9.5c-1.5,3.8-12,13.3-12,13.3c-0.9,0.9-2.2,1.3-3.5,1.1l-11.1-1.2l-5.6-3.2
	c-7.8-4.2-23.5-20.6-23.6-22.9c-0.1-4.2,0.4-8.4,1.3-12.4L349.9,66.8z"/>
<linearGradient id="SVGID_31_" gradientUnits="userSpaceOnUse" x1="319.05" y1="943.1541" x2="319.05" y2="734.384" gradientTransform="matrix(1 0 0 1 0 -428)">
	<stop  offset="0" style="stop-color:#CACDE2"/>
	<stop  offset="0.99" style="stop-color:#BBBFD9"/>
</linearGradient>
<path class="st32" d="M630.2,405.5C607.1,532.9,298,518.4,170.3,507.2C101,501.1,15.1,474.7,8,380c0-0.3,0-0.6-0.1-0.9v-13.8
	l331.4-69.5L630.2,405.5z"/>
<ellipse class="st33" cx="183.4" cy="457.6" rx="30.8" ry="15.4"/>
<ellipse class="st33" cx="93.2" cy="402.6" rx="30.8" ry="15.4"/>
<polygon class="st34" points="352.4,369.8 349.5,372.3 455.8,419.2 530.6,383.6 "/>
<linearGradient id="SVGID_32_" gradientUnits="userSpaceOnUse" x1="395.4655" y1="804.5581" x2="403.4655" y2="733.5581" gradientTransform="matrix(1 0 0 1 0 -428)">
	<stop  offset="1.000000e-02" style="stop-color:#BBBFD9"/>
	<stop  offset="0.29" style="stop-color:#CACDE2"/>
	<stop  offset="0.84" style="stop-color:#F2F3F8"/>
	<stop  offset="1" style="stop-color:#FFFFFF"/>
</linearGradient>
<polygon class="st35" points="339.6,285.9 352.4,365.3 458,408.1 441.3,318.9 "/>
<linearGradient id="SVGID_33_" gradientUnits="userSpaceOnUse" x1="510.1542" y1="696.6169" x2="488.4842" y2="685.2869" gradientTransform="matrix(1 0 0 1 0 -428)">
	<stop  offset="0" style="stop-color:#A04400"/>
	<stop  offset="1" style="stop-color:#753200"/>
</linearGradient>
<path class="st36" d="M482.8,268c0,0,3.7,5.3,6.7,7.3s7.7,6.7,8.3,9.1s5.3-2.3,2.2-7.3s-6.8-8-5.8-10s10.2-12.2,19.8-11.2
	s2-8.5-2.3-8.5s-20,6.7-20,6.7L482.8,268z"/>
<linearGradient id="SVGID_34_" gradientUnits="userSpaceOnUse" x1="525.2" y1="771.8641" x2="557.03" y2="771.8641" gradientTransform="matrix(1 0 0 1 0 -428)">
	<stop  offset="0" style="stop-color:#C2C2C2"/>
	<stop  offset="1" style="stop-color:#BDBDBD"/>
</linearGradient>
<path class="st37" d="M555.6,318.9l1.5,40.8l-24.4,9.2l-7.5-2.8l25.6-9.1C550.8,356.9,554.3,319.4,555.6,318.9z"/>
<linearGradient id="SVGID_35_" gradientUnits="userSpaceOnUse" x1="459.5804" y1="840.8998" x2="485.8203" y2="793.2198" gradientTransform="matrix(1 0 0 1 0 -428)">
	<stop  offset="1.000000e-02" style="stop-color:#BBBFD9"/>
	<stop  offset="0.29" style="stop-color:#CACDE2"/>
	<stop  offset="0.84" style="stop-color:#F2F3F8"/>
	<stop  offset="1" style="stop-color:#FFFFFF"/>
</linearGradient>
<polygon class="st38" points="458,408.1 530.6,377.8 446,343.7 "/>
<linearGradient id="SVGID_36_" gradientUnits="userSpaceOnUse" x1="555.3885" y1="663.2644" x2="503.7185" y2="614.7444" gradientTransform="matrix(1 0 0 1 0 -428)">
	<stop  offset="0" style="stop-color:#753200"/>
	<stop  offset="1" style="stop-color:#A04400"/>
</linearGradient>
<path class="st39" d="M545.8,194.9c-2.1,4.4-7.4,9.1-7.6,10.6l0,0c-2.2,4.5-7.1,14.5-10.3,19.4c-4.3,6.5-17,7.6-21.6,1.2
	s-15-14.4-15-14.4s-5.7-4.8-5.2-7.4s12.4-6.7,13.2-11.9c0.4-2.4-0.3-4.7-0.8-7.1c-0.6-2.8-1-5.8,0.8-9.3v-0.1c1-2,5-2.1,10.3-1.1
	c1.4,0.2,2.8,0.6,4.4,1l0,0c11.5,2.9,26.2,9.2,30.7,12.4C547.1,190,547,192.4,545.8,194.9z"/>
<linearGradient id="SVGID_37_" gradientUnits="userSpaceOnUse" x1="510.0576" y1="621.1129" x2="528.7275" y2="617.1229" gradientTransform="matrix(1 0 0 1 0 -428)">
	<stop  offset="0" style="stop-color:#A04400;stop-opacity:0"/>
	<stop  offset="0.18" style="stop-color:#9A4100;stop-opacity:0.14"/>
	<stop  offset="0.52" style="stop-color:#8A3B00;stop-opacity:0.52"/>
	<stop  offset="0.9" style="stop-color:#753200"/>
</linearGradient>
<path class="st40" d="M551.8,191.9l-7.7,13.3l-11.1-2.9l-3.3-11.6l-24-6.3l-7.1,1c-0.6-2.8-1-5.8,0.8-9.3l10.4-1.2l4.4,1l0,0
	l27.8,6.2L551.8,191.9z"/>
<path class="st31" d="M547.5,211.6c-3.5,0.9-7.9,2.8-10,6.8c-1.6,3.2-2.3,6.9-1.8,10.5c-0.3-0.1-0.5-0.2-0.5-0.2s-4.4,14.7-8.4,18.1
	c-1.9,1.6-9.5,1.7-17.5,1c-9.1-0.7-18.7-2.3-21.1-3.6c-4.6-2.5-2.5-10.6,0-13.9c0.6-0.9,1.1-1.8,1.4-2.9c3.6,1.4,8.8,3.1,9.7,1.5
	c1-1.8-5.4-6.6-9.7-9c-0.2-0.4-0.4-0.8-0.6-1.1c-1.9-2.5,2.5-7.2,2.5-7.2s10.4,8,15,14.4s17.3,5.3,21.6-1.2
	c3.2-4.9,8.1-14.9,10.3-19.4c0,0.2,0,0.4,0,0.4S542.7,210.4,547.5,211.6z"/>
<linearGradient id="SVGID_38_" gradientUnits="userSpaceOnUse" x1="489.49" y1="652.7877" x2="499.3289" y2="652.7877" gradientTransform="matrix(1 0 0 1 0 -428)">
	<stop  offset="0" style="stop-color:#753200"/>
	<stop  offset="1" style="stop-color:#A04400"/>
</linearGradient>
<path class="st41" d="M499.2,229c-0.9,1.6-6.1-0.1-9.7-1.5c0.8-2.4,0.8-5.1,0-7.5C493.9,222.4,500.2,227.2,499.2,229z"/>
<linearGradient id="SVGID_39_" gradientUnits="userSpaceOnUse" x1="540.1985" y1="677.1838" x2="490.4785" y2="630.4938" gradientTransform="matrix(1 0 0 1 0 -428)">
	<stop  offset="0" style="stop-color:#753200"/>
	<stop  offset="1" style="stop-color:#A04400"/>
</linearGradient>
<path class="st42" d="M551,226.1c-0.6,1.2-1.5,2.3-2.6,3.1c-0.2,1.4-0.5,3.2-0.8,5.4l-0.6,4.7c-0.8,6-1.3,12.8-0.8,16.8
	c1.1,8.4-28,17.6-33.8,14.6c-4-2.1-3.9-13.1-3.4-19.4c0.1-1.5,0.2-2.7,0.3-3.5c8,0.6,15.6,0.5,17.6-1c1.2-1.1,2.1-2.4,2.9-3.9
	c2.3-4.5,4.1-9.3,5.6-14.1c0,0-0.1-7,1.6-10.3c2.1-3.8,5.6-6.5,9.8-7.6c0.2,0,2,0,2.2,0C553.7,211.7,555,217.8,551,226.1z"/>
<path class="st31" d="M517.5,140.4l-0.4,1.9l-4-1.3l-1,0.8l-1.1-0.1v-1.3l-11.6-1.7v2.2l-5-0.9c0,0-1.1,2-1.6,1.5
	c-0.2-0.2-0.5-0.3-0.8-0.1l-0.1,0.1v0.9l9,1.9l-0.4,2.3l5.2,0.9c0,0,3.2-1.2,3.1,0s-3.9,0.6-4.6,0.6s-0.7,2.1-0.7,2.1
	s-2.9-0.6-3.4-0.6s-0.2,0.6-2.1,0.6s-2.1-1-2.1-1l-8.6-0.2v1.2c0,0-4.9-0.2-5.4,0.8s6.7,0,6.7,0v1.4l3.5,0.8c0,0-7.6,4-9.5,7.3
	c0.4,0,0.7,0.1,1,0.4c0,0-4.3,3.6-3,7.7c0.8-1.1,1.1-1.6,1.1-1.6l7.3,0.9l-0.5,1.7l-7.2,1.6v2c0,0-5.2,0.7-4.8,2.8s6.6-0.6,6.6-0.6
	c-0.1,0.9,0.1,1.8,0.6,2.5c-0.6,1.3-4.7,7.7-4.7,7.7h1.4c0,0-3.2,6-2.4,9.2c1.2-3.5,2.9-6.9,4.8-10.1h0.6l6-6.8l17.5,2.4l17.4-18
	l2.4-20.2L517.5,140.4z M503.6,163.8l-6.2,0.5l-0.8-1.9c0,0-8.8,1.3-9.2,0.8s0,1.7,0,1.7l-5.4-0.4l3.3-4.4l1,0.8l5.1-2.6l2.2-1.1
	l0.3,1.4l-2.9,0.8l-1,0.5l0.3,1.5l7.5-1.1l0.2,0.7h-1c0,0,0.6,1.5,1,1.5s7.7-0.4,7.7-0.4L503.6,163.8z"/>
<path class="st31" d="M559.3,159.1l-1.9,0.4l-0.5-4.1l-1.2-0.6l-0.4-1.1l1.2-0.6l-3.5-11.2l-2,0.9l-1.3-4.9c0,0-2.3-0.2-2-0.8
	c0.1-0.3,0-0.6-0.3-0.7h-0.1l-0.8,0.4l2.2,8.9l-2.3,0.6l1.4,5.1c0,0,2.5,2.4,1.3,2.8s-2.2-3.3-2.5-4s-2.2,0.2-2.2,0.2
	s-0.7-2.9-0.9-3.3s-0.7,0.1-1.5-1.6s0-2.3,0-2.3l-3.5-7.8l-1.1,0.5c0,0-1.9-4.5-3.1-4.6s2.9,6,2.9,6l-1.2,0.6l0.7,3.5
	c0,0-6.9-5.2-10.7-5.4c0.2,0.3,0.2,0.7,0.1,1.1c0,0-5.1-2.4-8.2,0.6c1.3,0.2,1.9,0.3,1.9,0.3l2.3,7l-1.8,0.3l-4.5-5.9l-1.8,0.8
	c0,0-2.8-4.4-4.6-3.2s3.4,5.7,3.4,5.7c-0.8,0.3-1.6,0.9-2,1.6c-1.4,0-9-0.9-9-0.9l0.6,1.2c0,0-6.8-0.4-9.3,1.8
	c3.7-0.4,7.5-0.4,11.2,0l0.3,0.6l8.7,2.5l13.4,20.3l15.7,4.5l19.2-6.5L559.3,159.1z M532.2,156.6l-3.1-5.4l1.4-1.5c0,0-5-7.4-4.7-8
	s-1.5,0.7-1.5,0.7l-2-5l5.4,1.1l-0.3,1.2l4.5,3.4l2,1.5l-1.1,0.8l-2.1-2.1l-0.9-0.7l-1.3,0.9l4.3,6.3l-0.6,0.5l-0.4-0.9
	c0,0-1,1.2-0.9,1.5s3.7,6.8,3.7,6.8L532.2,156.6z"/>
<path class="st31" d="M550.7,156.5l4.7-1.8l1,1.8c0,0,5.7-1.6,6.6-0.9s0.6,1.3,0.6,1.3l6.7,0.8l-0.7,0.9c0,0,2.1,1.6,1.8,1.6
	c-0.9,0.1-1.9,0.2-2.8,0.4c-0.8,0.1-1.5,0.1-2.3,0l-0.5,1l-1.7,0.5c0,0,4.4,0.2,4.9,1.8s6.9,1.1,6.4,2.4c-0.2,0.7-0.7,1.3-1.2,1.7
	c0,0,5.1,1.5,4.9,2.2s-1.7,1-1.7,1l-3-0.4c-0.2,0.7-0.2,1.4,0.1,2c1,0.9,2.1,1.7,3.3,2.3l-0.1,1c0,0,2.2,1.4,2,2.3l-0.2,0.9
	c0,0,2.4,2.5,2.3,3.1s-1.6,0.7-1.6,0.7s0.1,0.9-0.5,1c-0.6,0-1.2-0.2-1.7-0.4l-1.4,0.4l-1.5-1.1c0,0,5.2,7.5,4.1,7.9l-1.2,0.4
	c0,0,3.4,6.7,1.8,6.7s-2-0.5-2-0.5l-1.8-4.1l-1.6,0.5l-2.1-3.5l-6.2,0.2l-4.4-9L550.7,156.5z"/>
<path class="st31" d="M560.5,169.9c-0.8-0.4,0-2.6,0.8-3.9c0.4-0.5,0.7-1,0.9-1.6c-0.7,0.8-1.1,1.4-1.1,1.4s-0.2-3.1-0.4-6
	c-0.5,0-1-0.1-1.5-0.2c-9.2-1.8-17.5-4.6-26.1-6.6c-0.2,0-0.5-0.1-0.7-0.1c-4.6-1.1-9.2-1.8-13.9-2.1c-1.1,10.2-6.6,20.1-11.9,29.3
	c7.5,2.3,21,6,21,6l19.7,4.9l-20.2-2.5l-1,5l13.6,3.3l-4.3,14.2l6,2.1c0,0,4.7-3.7,8.2-0.8s2.1,12-2.2,17.3c0.1,3.2-0.2,6.4-0.9,9.6
	c0,0,13.4-23.9,18.9-29.4s7.2-12.4,7.3-15.3c0-1.8,2.2-5.3,4.2-8.1C571,181.4,567,174.9,560.5,169.9z"/>
<path class="st43" d="M340.8,130.7c0,0,12.7,6.6,23.2,0.7"/>
<linearGradient id="SVGID_40_" gradientUnits="userSpaceOnUse" x1="338.3913" y1="547.4957" x2="321.7213" y2="553.6558" gradientTransform="matrix(1 0 0 1 0 -428)">
	<stop  offset="0" style="stop-color:#464B8B"/>
	<stop  offset="0.28" style="stop-color:#393C76"/>
	<stop  offset="0.74" style="stop-color:#27275A"/>
	<stop  offset="1" style="stop-color:#201F4F"/>
</linearGradient>
<path class="st44" d="M338.4,131.7c0-0.1-0.1-0.1-0.1-0.2c-0.1-0.1-0.1-0.1-0.2-0.2c-0.1-0.1-0.1-0.1-0.2-0.1c-3.8-2-8.9,3.3-10.9,8
	s-10.9,2-10.9,2l6.7-28.2l15.1-10.1L337,116L338.4,131.7z"/>
<linearGradient id="SVGID_41_" gradientUnits="userSpaceOnUse" x1="331.0762" y1="580.6141" x2="340.7489" y2="580.6141" gradientTransform="matrix(1 0 0 1 0 -428)">
	<stop  offset="0" style="stop-color:#201F4F"/>
	<stop  offset="0.26" style="stop-color:#27275A"/>
	<stop  offset="0.72" style="stop-color:#393C76"/>
	<stop  offset="1" style="stop-color:#464B8B"/>
</linearGradient>
<line class="st45" x1="331.1" y1="153" x2="340.7" y2="152.3"/>
<linearGradient id="SVGID_42_" gradientUnits="userSpaceOnUse" x1="367.2874" y1="577.6141" x2="379.7227" y2="577.6141" gradientTransform="matrix(1 0 0 1 0 -428)">
	<stop  offset="0" style="stop-color:#464B8B"/>
	<stop  offset="0.28" style="stop-color:#393C76"/>
	<stop  offset="0.74" style="stop-color:#27275A"/>
	<stop  offset="1" style="stop-color:#201F4F"/>
</linearGradient>
<line class="st46" x1="379.6" y1="148.5" x2="367.4" y2="150.8"/>
<polygon class="st47" points="458,408.1 458,413.9 530.6,383.6 530.6,377.8 "/>
<polygon class="st47" points="458,413.9 352.4,369.8 352.4,365.3 458,408.1 "/>
<circle class="st48" cx="387.7" cy="343.9" r="9"/>
<path class="st43" d="M503.6,263.2c0,0,1.1,11.2,7.5,13.2c10.2,3.2,35.5-10.2,35.5-10.2"/>
<linearGradient id="SVGID_43_" gradientUnits="userSpaceOnUse" x1="234.4" y1="865.7641" x2="361.9" y2="865.7641" gradientTransform="matrix(1 0 0 1 0 -428)">
	<stop  offset="1.000000e-02" style="stop-color:#BBBFD9"/>
	<stop  offset="0.77" style="stop-color:#CACDE1"/>
	<stop  offset="1" style="stop-color:#D0D2E4"/>
</linearGradient>
<polygon class="st49" points="361.9,447.1 279.4,463 234.4,421.1 285.4,412.6 300.9,441.1 349.8,437.8 "/>
<polygon class="st50" points="364.2,444.8 281.7,460.6 236.7,418.8 287.7,410.3 303.2,438.8 352.1,435.5 "/>
<linearGradient id="SVGID_44_" gradientUnits="userSpaceOnUse" x1="162.8292" y1="889.1035" x2="213.9096" y2="877.3648" gradientTransform="matrix(1 0 0 1 0 -428)">
	<stop  offset="0" style="stop-color:#ABAAEA"/>
	<stop  offset="1" style="stop-color:#E7EEFE"/>
</linearGradient>
<path class="st51" d="M214.3,452.7c0,11.2-11.9,20.3-26.5,20.3s-26.5-9.1-26.5-20.3c0-3.9,1.4-7.6,3.9-10.6l0,0
	c0,3,10.1,5.4,22.6,5.4s22.6-2.4,22.6-5.4l0,0C212.9,445.1,214.2,448.9,214.3,452.7z"/>
<linearGradient id="SVGID_45_" gradientUnits="userSpaceOnUse" x1="165.14" y1="870.0641" x2="210.44" y2="870.0641" gradientTransform="matrix(1 0 0 1 0 -428)">
	<stop  offset="0" style="stop-color:#CDCCFF"/>
	<stop  offset="0.89" style="stop-color:#8988D5"/>
</linearGradient>
<path class="st52" d="M210.4,442.1L210.4,442.1c0,3-10.1,5.4-22.6,5.4s-22.6-2.4-22.6-5.4l0,0c0-0.8,0.7-1.5,2-2.2l0,0
	c3.6-1.9,11.5-3.2,20.6-3.2s17.1,1.3,20.6,3.2l0,0C209.7,440.6,210.4,441.4,210.4,442.1z"/>
<linearGradient id="SVGID_46_" gradientUnits="userSpaceOnUse" x1="136.9" y1="850.2271" x2="188.64" y2="850.2271" gradientTransform="matrix(1 0 0 1 0 -428)">
	<stop  offset="0" style="stop-color:#201F4F"/>
	<stop  offset="0.26" style="stop-color:#27275A"/>
	<stop  offset="0.72" style="stop-color:#393C76"/>
	<stop  offset="1" style="stop-color:#464B8B"/>
</linearGradient>
<path class="st53" d="M188.6,444.5c-0.9,0-2.1,0-3.4-0.1H185c-6.8-0.6-17.9-3.1-24.6-13.3c-0.7-1.1-1.3-2.2-1.9-3.3
	c-1.1-2.3-2-4.8-2.6-7.3c-2.3-9.9-14.8-16.7-19.1-17.7c1.4-5.1,19.5-2.8,30.5,3.9c3,1.6,5.5,4,7.4,6.9l0,0l1.4,5.9
	c0.4,3.2,1.2,6.4,2.5,9.4c0.6,1.5,1.3,3,2.1,4.5c1.5,2.8,3.3,5.5,5.2,8.1C187.6,443.3,188.6,444.5,188.6,444.5z"/>
<path class="st54" d="M184.3,442.2c0,0-13.8-8.1-16.5-19s-11.1-18.4-19.9-19.4"/>
<path class="st50" d="M188.6,444.5c0,0-7.8-31.6,1.5-39.8s22.6-11.2,34.1-5c-13.9,0.8-17.7,10.3-16.8,18.9
	C208.3,426.4,197.9,446.6,188.6,444.5z"/>
<path class="st55" d="M188.6,444.5c14.3-12.8-8.5-33.2,25.6-45.6"/>
<linearGradient id="SVGID_47_" gradientUnits="userSpaceOnUse" x1="177.2895" y1="845.5354" x2="158.1395" y2="838.8654" gradientTransform="matrix(1 0 0 1 0 -428)">
	<stop  offset="0" style="stop-color:#1F1844"/>
	<stop  offset="0.99" style="stop-color:#3D3C99"/>
</linearGradient>
<path class="st56" d="M176.2,419.4c-5.5,1-19.8-4.8-19.5-8.8c0.3-3.7,12.1-0.9,18.1,2.9l0,0L176.2,419.4z"/>
<linearGradient id="SVGID_48_" gradientUnits="userSpaceOnUse" x1="181.01" y1="859.5103" x2="158.0406" y2="856.7603" gradientTransform="matrix(1 0 0 1 0 -428)">
	<stop  offset="0" style="stop-color:#1F1844"/>
	<stop  offset="0.99" style="stop-color:#3D3C99"/>
</linearGradient>
<path class="st57" d="M180.8,433.3c-3.8,1.8-15.4,0.3-20.4-2.3c-1.3-0.7-2.1-1.4-2.3-2.2c-0.1-0.4,0.1-0.9,0.4-1.1
	c2.4-2.2,14.2-1.3,20.1,1.1C179.3,430.3,180,431.8,180.8,433.3z"/>
<linearGradient id="SVGID_49_" gradientUnits="userSpaceOnUse" x1="963.0569" y1="1949.5828" x2="970.4781" y2="1949.5828" gradientTransform="matrix(0.7025 -0.7117 0.7117 0.7025 -1896.1989 -286.2956)">
	<stop  offset="0" style="stop-color:#E0E4EB"/>
	<stop  offset="0.99" style="stop-color:#F3F6FD"/>
</linearGradient>
<path class="st58" d="M163.2,384.8c2.6-4.4,21.1,13.6,17.9,17.6S160.8,389,163.2,384.8z"/>
<linearGradient id="SVGID_50_" gradientUnits="userSpaceOnUse" x1="920.9075" y1="2875.1946" x2="928.4009" y2="2875.1946" gradientTransform="matrix(0.3054 -0.9522 0.9522 0.3054 -2851.9128 417.7572)">
	<stop  offset="0" style="stop-color:#E0E4EB"/>
	<stop  offset="0.99" style="stop-color:#F3F6FD"/>
</linearGradient>
<path class="st59" d="M158.2,409.5c0.4-5.1,22.7,2.2,21.6,7.2S157.8,414.4,158.2,409.5z"/>
<linearGradient id="SVGID_51_" gradientUnits="userSpaceOnUse" x1="-1394.0316" y1="636.6398" x2="-1386.6017" y2="636.6398" gradientTransform="matrix(0.63 0.78 -0.78 0.63 1557.564 1072.2548)">
	<stop  offset="0" style="stop-color:#E0E4EB"/>
	<stop  offset="0.99" style="stop-color:#F3F6FD"/>
</linearGradient>
<path class="st60" d="M199.6,387c4,3.1-15.6,19.9-19.1,16.2S195.9,384,199.6,387z"/>
<linearGradient id="SVGID_52_" gradientUnits="userSpaceOnUse" x1="-1653.9658" y1="598.5288" x2="-1646.3558" y2="598.5288" gradientTransform="matrix(0.5 0.87 -0.77 0.45 1471.7604 1574.3903)">
	<stop  offset="0" style="stop-color:#E0E4EB"/>
	<stop  offset="0.99" style="stop-color:#F3F6FD"/>
</linearGradient>
<path class="st61" d="M197.8,408.5c3.3,3.8-15.5,13.2-18.4,9S194.6,404.9,197.8,408.5z"/>
<linearGradient id="SVGID_53_" gradientUnits="userSpaceOnUse" x1="518.2783" y1="1057.5186" x2="529.2181" y2="1057.5186" gradientTransform="matrix(0.9729 -0.2314 0.2314 0.9729 -571.1173 -493.1753)">
	<stop  offset="0" style="stop-color:#E0E4EB"/>
	<stop  offset="0.99" style="stop-color:#F3F6FD"/>
</linearGradient>
<path class="st62" d="M180.9,383.4c0.3,8.1-0.1,16.3-1.2,24.4c-1.7,11.4,2.6,30.6,9.7,36.7"/>
<linearGradient id="SVGID_54_" gradientUnits="userSpaceOnUse" x1="893.6523" y1="3339.677" x2="901.4324" y2="3339.677" gradientTransform="matrix(4.000000e-02 -0.93 1 4.000000e-02 -3205.2441 1125.7695)">
	<stop  offset="0" style="stop-color:#E0E4EB"/>
	<stop  offset="0.99" style="stop-color:#F3F6FD"/>
</linearGradient>
<path class="st63" d="M158.2,428c-1-4.7,23.7-2,23.9,2.8C182.3,435.6,159.1,432.4,158.2,428z"/>
<linearGradient id="SVGID_55_" gradientUnits="userSpaceOnUse" x1="-1864.7491" y1="637.6355" x2="-1856.3292" y2="637.6355" gradientTransform="matrix(0.35 0.94 -0.74 0.28 1311.9495 1992.462)">
	<stop  offset="0" style="stop-color:#E0E4EB"/>
	<stop  offset="0.99" style="stop-color:#F3F6FD"/>
</linearGradient>
<path class="st64" d="M198.7,420.3c2.6,4.3-15.1,15.1-17.1,10.4S196.2,416.2,198.7,420.3z"/>
<linearGradient id="SVGID_56_" gradientUnits="userSpaceOnUse" x1="186.775" y1="793.2753" x2="181.1549" y2="816.2453" gradientTransform="matrix(1 0 0 1 0 -428)">
	<stop  offset="0" style="stop-color:#E6EAF1"/>
	<stop  offset="0.99" style="stop-color:#F3F6FD"/>
</linearGradient>
<path class="st65" d="M187.1,364.7c5,0.4-1.5,25.4-6.4,24.3S182.4,364.3,187.1,364.7z"/>
<linearGradient id="SVGID_57_" gradientUnits="userSpaceOnUse" x1="524.5134" y1="672.2747" x2="577.8734" y2="654.1147" gradientTransform="matrix(1 0 0 1 0 -428)">
	<stop  offset="0" style="stop-color:#753200"/>
	<stop  offset="1" style="stop-color:#A04400"/>
</linearGradient>
<path class="st66" d="M547.5,229.6l-0.6,9.6v0.1l-0.3,0.9c-13.8,11.1-27.4,12.2-37.6,11c0.1-1.5,0.2-2.7,0.3-3.5
	c8,0.6,15.6,0.5,17.5-1c1.2-1.1,2.1-2.4,2.9-3.9C536.8,240.4,543,235.8,547.5,229.6z"/>
<linearGradient id="SVGID_58_" gradientUnits="userSpaceOnUse" x1="175.9133" y1="673.8846" x2="189.0433" y2="601.9046" gradientTransform="matrix(1 0 0 1 0 -428)">
	<stop  offset="0.38" style="stop-color:#201F4F"/>
	<stop  offset="0.54" style="stop-color:#27275A"/>
	<stop  offset="0.83" style="stop-color:#393C76"/>
	<stop  offset="1" style="stop-color:#464B8B"/>
</linearGradient>
<path class="st67" d="M205.2,172.2c-24-21-57,3.9-63,30.9c-1.7,7.3-3.4,18.5-4.8,29.6c-2.2,17.7,53,12.3,53.7,12.9s3.7,8,11.6,10.9
	C230.5,237.4,225.7,191.8,205.2,172.2z"/>
<polygon class="st33" points="396.8,435.2 350.7,438.4 301.8,441.7 286.2,413.2 280.2,402.2 353.2,396.7 "/>
<linearGradient id="SVGID_59_" gradientUnits="userSpaceOnUse" x1="281.7" y1="844.2641" x2="398.2" y2="844.2641" gradientTransform="matrix(1 0 0 1 0 -428)">
	<stop  offset="0" style="stop-color:#FFFFFF"/>
	<stop  offset="0.16" style="stop-color:#F2F3F8"/>
	<stop  offset="0.71" style="stop-color:#CACDE2"/>
	<stop  offset="0.99" style="stop-color:#BBBFD9"/>
</linearGradient>
<polygon class="st68" points="398.2,432.3 352.1,435.5 303.2,438.8 287.7,410.3 281.7,399.3 354.7,393.8 "/>
<linearGradient id="SVGID_60_" gradientUnits="userSpaceOnUse" x1="240.46" y1="748.3841" x2="247.46" y2="712.6341" gradientTransform="matrix(1 0 0 1 0 -428)">
	<stop  offset="0.11" style="stop-color:#8988D5"/>
	<stop  offset="0.56" style="stop-color:#9D9CE8"/>
	<stop  offset="1" style="stop-color:#A7A5EE"/>
</linearGradient>
<path class="st69" d="M229.9,310.2l1.8,9.1l28.1-2.7l28.5-9.1l-36.5-6.6c0,0-20-36.5-28.3-49c-2.6-3.9-10.5-4.9-13.7-6.3
	L229.9,310.2z"/>
<polygon class="st33" points="234.7,372.2 334.7,372.2 335.1,367.4 236.6,364.5 "/>
<polygon class="st70" points="236.3,369.8 336.3,369.8 336.7,364.9 236.6,364.9 "/>
<polygon class="st50" points="240,309.8 236.6,364.9 336.7,364.9 340.6,309.8 "/>
<linearGradient id="SVGID_61_" gradientUnits="userSpaceOnUse" x1="217" y1="779.0965" x2="259.49" y2="779.0965" gradientTransform="matrix(1 0 0 1 0 -428)">
	<stop  offset="0" style="stop-color:#753200"/>
	<stop  offset="1" style="stop-color:#A04400"/>
</linearGradient>
<path class="st71" d="M222.4,342.1c0,0-3.3,1.4-4.4,2.9l-1,12.5c0,0,7.8,4.3,13.6,6c3.6,0.9,7.3,1.4,11,1.6c4.7,0.4,10.8,0.8,10.6-1
	s-8.4-1.1-8.7-2.2s13-0.7,13-2.8s-13.4-0.5-13.4-1.5s16.5-0.8,16.5-2.8c0-2.5-16.6-0.7-16.2-2.4c0.2-1,15.2-0.7,15.1-2.6
	s-8.4-1.1-13.4-1.5s-10.1-2.5-10.9-4.7s11.1-4.8,9.9-6.5S222.4,342.1,222.4,342.1"/>
<linearGradient id="SVGID_62_" gradientUnits="userSpaceOnUse" x1="138.1227" y1="727.3326" x2="232.7698" y2="727.3326" gradientTransform="matrix(1 0 0 1 0 -428)">
	<stop  offset="0" style="stop-color:#A7A5EE"/>
	<stop  offset="0.44" style="stop-color:#9D9CE8"/>
	<stop  offset="0.89" style="stop-color:#8988D5"/>
</linearGradient>
<path class="st72" d="M194.8,240c8.4-0.5,16.7,2,23.5,6.9c2.8,2,5.2,4.5,7.1,7.3c6.2,9,9.1,38.6,6.3,65l-57.1,11.4
	c3.8,1.5,35.4,10.3,48.6,10.8c-7.5,4.1-5,17.4-5,17.4c-31-0.7-66.5-3.4-72.7-27.8c-4.7-18.6-7.3-46.1-7.5-57.4
	c-0.3-15.3,7.6-23.5,15.4-27.5s25.6-5.5,25.6-5.5L194.8,240z"/>
<linearGradient id="SVGID_63_" gradientUnits="userSpaceOnUse" x1="129.4293" y1="626.9609" x2="205.0893" y2="591.9409" gradientTransform="matrix(1 0 0 1 0 -428)">
	<stop  offset="0" style="stop-color:#753200"/>
	<stop  offset="1" style="stop-color:#A04400"/>
</linearGradient>
<path class="st73" d="M219.2,178c-0.1,1.5-0.3,2.9-0.5,4.3c-1.9-7.4-14.5-15.7-28.7-14.4c0,0,0,1.7-2.7,2.2s-3.9-2.9-4.5,0
	s-0.6,6.7-3.9,6.7s-5.4,2.1-5.6,4.2s5.2,9.6,2.5,11.4c-3.2,2.1-5.5,10-5.5,10s-2.5-18.2-12.3-7.6c-0.7,2-1.3,3.9-1.8,5.9
	c-0.5-2.9,0.3-5.1,1.9-6.5c0.4-0.4,0.9-0.7,1.5-1c-1.5-4.9-2.3-9.9-2.4-15c0-2.9,0.3-5.8,1-8.7c3.9-15,23.3-19.4,36-18.5
	S220.4,164,219.2,178z"/>
<linearGradient id="SVGID_64_" gradientUnits="userSpaceOnUse" x1="-2886.0413" y1="1139.9686" x2="-2913.0312" y2="1166.4586" gradientTransform="matrix(-0.98 0.21 0.21 0.98 -2897.7366 -288.7127)">
	<stop  offset="0" style="stop-color:#A04400"/>
	<stop  offset="1" style="stop-color:#753200"/>
</linearGradient>
<path class="st74" d="M164,219.5c7.2,10.6,18.7,17.6,31.5,19l-0.1-1.7l-0.1-2.1c-9-2.7-19.9-8.9-32.5-22l0.3,0.3
	c0.4,1.9,0.6,3.7,0.8,5.6C164,218.9,164,219.2,164,219.5z"/>
<linearGradient id="SVGID_65_" gradientUnits="userSpaceOnUse" x1="-2886.0581" y1="1121.1681" x2="-2889.5481" y2="1124.588" gradientTransform="matrix(-0.98 0.21 0.21 0.98 -2897.7366 -288.7127)">
	<stop  offset="0" style="stop-color:#753200"/>
	<stop  offset="1" style="stop-color:#A04400"/>
</linearGradient>
<path class="st75" d="M164.6,198.8c0,0-2.9-3.5-4.6-0.5s1.6,7.5,1.6,7.5L164.6,198.8z"/>
<path class="st43" d="M167.6,253.7c0,0,27.6,20,34.3,18.8s1.5-27,1.5-27"/>
<linearGradient id="SVGID_66_" gradientUnits="userSpaceOnUse" x1="124.0415" y1="629.8491" x2="240.0967" y2="629.8491" gradientTransform="matrix(1 0 0 1 0 -428)">
	<stop  offset="0" style="stop-color:#201F4F"/>
	<stop  offset="0.26" style="stop-color:#27275A"/>
	<stop  offset="0.72" style="stop-color:#393C76"/>
	<stop  offset="1" style="stop-color:#464B8B"/>
</linearGradient>
<path class="st76" d="M238.7,232.4c2.8,6.2,1,14.6-2.9,19.1c-3.5,4-2.8,8.8-5.6,11.2c-5.8-8.8-11-16.7-20.1-20.2
	c16.3-17.9-6.5-50.3-8.2-56.8l-31.6,20.1c0,0,9.4,23.3-3.3,40c-2.7,3.5-14.4,26.1-26.6,20.3c-7.3-3.5-2.5-10.5-4.2-12.4
	c-5.9-6.5-12.4-13.5-9.3-18.9c3-5.4,1.9-2.8-1-6.1s-1.6-8,0.6-11c2.2-3-3-12,0.2-15.5c6.8-7.5,5.3-15,4.5-17.6s1.6-5,3.5-6.3
	s2.5-4.7,2.1-10.1s4.3-7.3,5.7-8.7c3.6-3.6,3.4-5.3,4.4-9.2c1.8-7,13.2-7,19.8-7.1s4.6-9.3,19.9-5.6c2.4,0.6,5.7,5.7,13.8,4.1
	c8.5-1.8,18.2,6.4,17.6,10.4s10.6,4.3,11.5,17.1c0,0.3,0.1,0.7,0.1,1.1c0.3,3.7,1.5,7.2,3.4,10.3c0.8,1.3,1.4,2.6,1.9,4
	c1.9,5.2-1.4,10.4,0,14.9s4,11.3,1.1,18C232.4,225.1,237.4,229.5,238.7,232.4z"/>
<linearGradient id="SVGID_67_" gradientUnits="userSpaceOnUse" x1="218.4858" y1="649.2145" x2="154.8497" y2="635.0331" gradientTransform="matrix(1 0 0 1 0 -428)">
	<stop  offset="0" style="stop-color:#753200"/>
	<stop  offset="1" style="stop-color:#A04400"/>
</linearGradient>
<path class="st77" d="M219.9,214.9c-2.8,12.3-14.2,17.9-21.6,19.5c-0.7,0.1-1.4,0.2-2,0.3c-0.3,0-0.6,0.1-0.9,0.1l0.1,2.1l0.2,2.6
	l0.2,2.4l5.3,22.1c0.4,1.7-0.6,3.3-2.3,3.7c-0.9,0.2-1.8,0-2.5-0.5c-10.6-7.4-29.2-17.6-29.4-21.4c0,0-1.1-5.7-2.6-22.9
	c-0.1-1.1-0.2-2.2-0.3-3.4c0-0.3-0.1-0.6-0.1-0.9c0-0.6-0.1-1.3-0.2-2c-0.1-1.2-0.3-2.4-0.6-3.6c-0.1-0.1-0.2-0.2-0.3-0.3
	c-4.1-4.7-6.2-8.8-6.7-12c0.3-1.1,0.6-2.3,0.9-3.4c0.6-2.1,1.9-3.8,3.7-5c7.5-4.6,9.5,10,9.5,10s25.3-5.2,31.5-34.8
	c3.4-0.7,6.9,0.1,9.6,2.1c3,2.1,5.8,5.9,7.2,12.6l0,0c-0.6,4-1.3,7.9-0.9,11.5C218.2,198.8,221.9,206.3,219.9,214.9z"/>
<linearGradient id="SVGID_68_" gradientUnits="userSpaceOnUse" x1="201.0603" y1="607.3447" x2="165.3103" y2="624.3447" gradientTransform="matrix(1 0 0 1 0 -428)">
	<stop  offset="0.1" style="stop-color:#753200"/>
	<stop  offset="0.48" style="stop-color:#8A3B00;stop-opacity:0.52"/>
	<stop  offset="0.82" style="stop-color:#9A4100;stop-opacity:0.14"/>
	<stop  offset="1" style="stop-color:#A04400;stop-opacity:0"/>
</linearGradient>
<path class="st78" d="M211.5,169.7c-3.9,10.1-10,19.5-22.3,26.5c-13.5,7.7-18.9,6.2-18.9,6.2s25.3-5.2,31.5-34.8
	C205.2,166.9,208.7,167.7,211.5,169.7z"/>
<linearGradient id="SVGID_69_" gradientUnits="userSpaceOnUse" x1="158.2448" y1="646.0935" x2="191.2448" y2="664.4235" gradientTransform="matrix(1 0 0 1 0 -428)">
	<stop  offset="0" style="stop-color:#A04400"/>
	<stop  offset="1" style="stop-color:#753200"/>
</linearGradient>
<path class="st79" d="M195.5,236.8l0.2,2.6c-9.6-1.1-21-5.1-31.4-16.6c-0.1-1.1-0.2-2.2-0.3-3.4c0-0.3-0.1-0.6-0.1-0.9
	c0-0.6-0.1-1.3-0.2-2c12.6,10.2,23.4,15.5,32.5,18c-0.3,0-0.6,0.1-0.9,0.1L195.5,236.8z"/>
<path class="st80" d="M127.6,404.5c0,6.3-13.4,11.5-30,11.5s-30-5.1-30-11.5c0-15.1,13.4-11.5,30-11.5S127.6,389.4,127.6,404.5z"/>
<linearGradient id="SVGID_70_" gradientUnits="userSpaceOnUse" x1="97.6" y1="848.9541" x2="97.6" y2="822.4241" gradientTransform="matrix(1 0 0 1 0 -428)">
	<stop  offset="0" style="stop-color:#201F4F"/>
	<stop  offset="0.26" style="stop-color:#27275A"/>
	<stop  offset="0.72" style="stop-color:#393C76"/>
	<stop  offset="1" style="stop-color:#464B8B"/>
</linearGradient>
<ellipse class="st81" cx="97.6" cy="400.4" rx="30" ry="11.5"/>
<linearGradient id="SVGID_71_" gradientUnits="userSpaceOnUse" x1="86.0901" y1="829.4148" x2="86.0901" y2="743.5106" gradientTransform="matrix(1 0 0 1 0 -428)">
	<stop  offset="0" style="stop-color:#201F4F"/>
	<stop  offset="0.26" style="stop-color:#27275A"/>
	<stop  offset="0.72" style="stop-color:#393C76"/>
	<stop  offset="1" style="stop-color:#464B8B"/>
</linearGradient>
<polyline class="st82" points="97.6,400.4 73.7,359.7 99.1,316.6 "/>
<linearGradient id="SVGID_72_" gradientUnits="userSpaceOnUse" x1="1066.6704" y1="1603.623" x2="1066.6704" y2="1559.803" gradientTransform="matrix(0.73 -0.69 0.69 0.73 -1758.2412 -103.0217)">
	<stop  offset="0" style="stop-color:#201F4F"/>
	<stop  offset="0.26" style="stop-color:#27275A"/>
	<stop  offset="0.72" style="stop-color:#393C76"/>
	<stop  offset="1" style="stop-color:#464B8B"/>
</linearGradient>
<path class="st83" d="M137.2,315.8L110.5,341l-18.3-23.5c-5-6.4-4.3-15.5,1.6-21l0,0c5.9-5.5,14.9-5.7,21-0.4L137.2,315.8z"/>
</svg>
