<?xml version="1.0" encoding="utf-8"?>
<!-- Generator: Adobe Illustrator 23.1.1, SVG Export Plug-In . SVG Version: 6.00 Build 0)  -->
<svg version="1.1" id="Layer_1" xmlns="http://www.w3.org/2000/svg" xmlns:xlink="http://www.w3.org/1999/xlink" x="0px" y="0px"
	 viewBox="0 0 650 650" style="enable-background:new 0 0 650 650;" xml:space="preserve">
<style type="text/css">
	.st0{fill:url(#SVGID_1_);}
	.st1{fill:#FFFFFF;}
	.st2{fill:#E9ECF5;}
	.st3{fill:none;stroke:url(#SVGID_2_);stroke-width:10.58;stroke-linecap:round;stroke-miterlimit:10;}
	.st4{fill:none;stroke:url(#SVGID_3_);stroke-width:10.58;stroke-linecap:round;stroke-miterlimit:10;}
	.st5{fill:url(#SVGID_4_);}
	.st6{fill:#BCC0DA;}
	.st7{fill:none;stroke:#FFFFFF;stroke-width:1.99;stroke-miterlimit:10;}
	.st8{fill:#AEB1C9;}
	.st9{fill:#DEE0ED;}
	.st10{fill:url(#SVGID_5_);}
	.st11{fill:url(#SVGID_6_);stroke:#FFFFFF;stroke-width:0.8;stroke-miterlimit:10;}
	.st12{fill:none;stroke:#FFFFFF;stroke-width:1.71;stroke-miterlimit:10;}
	.st13{fill:url(#SVGID_7_);}
	.st14{fill:url(#SVGID_8_);}
	.st15{fill:url(#SVGID_9_);}
	.st16{fill:url(#SVGID_10_);}
	.st17{fill:url(#SVGID_11_);}
	.st18{fill:#1F1844;}
	.st19{fill:url(#SVGID_12_);}
	.st20{fill:url(#SVGID_13_);}
	.st21{fill:url(#SVGID_14_);}
	.st22{fill:#201F4F;}
	.st23{fill:url(#SVGID_15_);}
	.st24{fill:url(#SVGID_16_);}
	.st25{fill:url(#SVGID_17_);}
	.st26{fill:url(#SVGID_18_);}
	.st27{fill:url(#SVGID_19_);}
	.st28{fill:url(#SVGID_20_);}
	.st29{fill:url(#SVGID_21_);}
	.st30{fill:url(#SVGID_22_);}
	.st31{fill:url(#SVGID_23_);}
	.st32{fill:url(#SVGID_24_);}
	.st33{fill:url(#SVGID_25_);}
	.st34{fill:#D5527E;}
	.st35{fill:url(#SVGID_26_);}
	.st36{fill:url(#SVGID_27_);}
	.st37{fill:url(#SVGID_28_);}
	.st38{fill:url(#SVGID_29_);}
	.st39{fill:url(#SVGID_30_);}
	.st40{fill:url(#SVGID_31_);}
	.st41{fill:url(#SVGID_32_);}
	.st42{fill:none;stroke:#201F4F;stroke-width:4.66;stroke-linecap:round;stroke-miterlimit:10;}
	.st43{fill:url(#SVGID_33_);}
	.st44{fill:url(#SVGID_34_);}
	.st45{fill:url(#SVGID_35_);}
	.st46{fill:url(#SVGID_36_);}
	.st47{fill:url(#SVGID_37_);}
	.st48{fill:url(#SVGID_38_);}
	.st49{fill:url(#SVGID_39_);}
	.st50{fill:url(#SVGID_40_);}
	.st51{fill:url(#SVGID_41_);}
	.st52{fill:url(#SVGID_42_);}
	.st53{fill:url(#SVGID_43_);}
	.st54{fill:url(#SVGID_44_);}
	.st55{fill:url(#SVGID_45_);}
	.st56{fill:url(#SVGID_46_);}
	.st57{fill:url(#SVGID_47_);}
	.st58{fill:url(#SVGID_48_);}
	.st59{fill:url(#SVGID_49_);}
	.st60{fill:url(#SVGID_50_);}
	.st61{fill:url(#SVGID_51_);}
	.st62{fill:url(#SVGID_52_);}
	.st63{fill:url(#SVGID_53_);}
	.st64{fill:url(#SVGID_54_);}
	.st65{fill:url(#SVGID_55_);}
	.st66{fill:url(#SVGID_56_);}
	.st67{fill:url(#SVGID_57_);}
	.st68{fill:url(#SVGID_58_);}
	.st69{fill:url(#SVGID_59_);}
	.st70{fill:url(#SVGID_60_);}
	.st71{fill:url(#SVGID_61_);}
	.st72{fill:url(#SVGID_62_);}
	.st73{fill:url(#SVGID_63_);}
	.st74{fill:url(#SVGID_64_);}
</style>
<title>1</title>
<linearGradient id="SVGID_1_" gradientUnits="userSpaceOnUse" x1="26.76" y1="393.97" x2="430.23" y2="393.97" gradientTransform="matrix(1 0 0 -1 0 652)">
	<stop  offset="1.000000e-02" style="stop-color:#BBBFD9"/>
	<stop  offset="1" style="stop-color:#D6DBF8"/>
</linearGradient>
<path class="st0" d="M41.2,123.9h374.6c8,0,14.4,6.5,14.4,14.4v239.3c0,8-6.5,14.4-14.4,14.4H41.2c-8,0-14.4-6.5-14.4-14.4V138.4
	C26.8,130.4,33.2,123.9,41.2,123.9z"/>
<path class="st1" d="M46.9,135.4h363.3c4.8,0,8.6,3.9,8.6,8.6v228c0,4.8-3.9,8.6-8.6,8.6H46.9c-4.8,0-8.6-3.9-8.6-8.6v-228
	C38.2,139.3,42.1,135.4,46.9,135.4z"/>
<path class="st2" d="M98.3,161h163c5,0,9,4,9,9v78.5c0,5-4,9-9,9h-163c-5,0-9-4-9-9V170C89.3,165,93.3,161,98.3,161z"/>
<path class="st2" d="M102.4,283.2h154.8c7.3,0,13.1,5.9,13.1,13.1v0c0,7.3-5.9,13.1-13.1,13.1H102.4c-7.3,0-13.1-5.9-13.1-13.1v0
	C89.3,289,95.2,283.2,102.4,283.2z"/>
<path class="st2" d="M102.4,320.9h154.8c7.3,0,13.1,5.9,13.1,13.1v0c0,7.3-5.9,13.1-13.1,13.1H102.4c-7.3,0-13.1-5.9-13.1-13.1v0
	C89.3,326.8,95.2,320.9,102.4,320.9z"/>
<path class="st2" d="M338,152h-0.2c-26.4,0-47.9,21.4-48.1,47.8H338V152z"/>
<path class="st2" d="M297.7,209.1c0,0.1,0,0.2,0,0.3c0,26.6,21.5,48.1,48.1,48.1l0,0h0.2v-48.4H297.7z"/>
<path class="st2" d="M346,161.3v47.8h47.9C393.7,182.7,372.4,161.4,346,161.3z"/>
<path class="st2" d="M346,209.1v48.4c26.5-0.1,47.9-21.6,47.9-48.1c0-0.1,0-0.2,0-0.3L346,209.1z"/>
<linearGradient id="SVGID_2_" gradientUnits="userSpaceOnUse" x1="292.36" y1="357.73" x2="404.17" y2="357.73" gradientTransform="matrix(1 0 0 -1 0 652)">
	<stop  offset="0" style="stop-color:#F0F2F5"/>
	<stop  offset="0.99" style="stop-color:#F5F7F8"/>
</linearGradient>
<line class="st3" x1="297.6" y1="294.3" x2="398.9" y2="294.3"/>
<linearGradient id="SVGID_3_" gradientUnits="userSpaceOnUse" x1="292.36" y1="317.97" x2="404.17" y2="317.97" gradientTransform="matrix(1 0 0 -1 0 652)">
	<stop  offset="0" style="stop-color:#F0F2F5"/>
	<stop  offset="0.99" style="stop-color:#F5F7F8"/>
</linearGradient>
<line class="st4" x1="297.6" y1="334" x2="398.9" y2="334"/>
<linearGradient id="SVGID_4_" gradientUnits="userSpaceOnUse" x1="479.55" y1="122.585" x2="588.93" y2="122.585" gradientTransform="matrix(1 0 0 -1 0 652)">
	<stop  offset="1.000000e-02" style="stop-color:#BBBFD9"/>
	<stop  offset="0.69" style="stop-color:#CACEE2"/>
	<stop  offset="1" style="stop-color:#D3D6E7"/>
</linearGradient>
<path class="st5" d="M485.3,453h103.7l0,0v152.8l0,0H487.4c-4.4,0-7.9-3.5-7.9-7.9l0,0V458.7C479.6,455.5,482.1,453,485.3,453z"/>
<path class="st6" d="M588.9,453h25.6c8.4,0,15.2,6.8,15.2,15.2v129.8c0,4.4-3.5,7.9-7.9,7.9l0,0h-32.9l0,0V453L588.9,453z"/>
<line class="st7" x1="479.5" y1="502.6" x2="588.9" y2="502.6"/>
<line class="st7" x1="479.5" y1="555.2" x2="588.9" y2="555.2"/>
<path class="st1" d="M519.8,473.2h23.5c3.1,0,5.6,2.5,5.6,5.6v0c0,3.1-2.5,5.6-5.6,5.6h-23.5c-3.1,0-5.6-2.5-5.6-5.6v0
	C514.2,475.7,516.7,473.2,519.8,473.2z"/>
<path class="st1" d="M519.8,523.8h23.5c3.1,0,5.6,2.5,5.6,5.6v0c0,3.1-2.5,5.6-5.6,5.6h-23.5c-3.1,0-5.6-2.5-5.6-5.6v0
	C514.2,526.3,516.7,523.8,519.8,523.8z"/>
<path class="st1" d="M519.8,574.6h23.5c3.1,0,5.6,2.5,5.6,5.6v0c0,3.1-2.5,5.6-5.6,5.6h-23.5c-3.1,0-5.6-2.5-5.6-5.6v0
	C514.2,577.1,516.7,574.6,519.8,574.6z"/>
<path class="st8" d="M499.9,400h99.5l0,0v53l0,0H493.1l0,0v-46.2C493.2,403,496.2,400,499.9,400z"/>
<path class="st6" d="M599.5,400h2.7c5.4,0,9.8,4.4,9.8,9.9v33.3c0,5.4-4.4,9.9-9.8,9.9h-2.7l0,0V400L599.5,400z"/>
<path class="st9" d="M502,400h84.2l0,0v6.6c0,5.9-4.8,10.7-10.7,10.7l0,0h-62.9c-5.9,0-10.7-4.8-10.7-10.7V400L502,400z"/>
<path class="st1" d="M531.5,400c0,0-2.4-21.1,10.9-26.8h51c0,0-13.8,11.2-12.9,26.8H531.5z"/>
<path class="st9" d="M505.2,438.7H583c1.8,0,3.2,1.4,3.2,3.2l0,0c0,1.8-1.4,3.2-3.2,3.2h-77.8c-1.8,0-3.2-1.4-3.2-3.2l0,0
	C502,440.1,503.4,438.7,505.2,438.7z"/>
<path class="st8" d="M593.3,400l-1.3-4.2c-0.9-2.8-3.5-4.7-6.5-4.7h-4l-1,8.9L593.3,400z"/>
<linearGradient id="SVGID_5_" gradientUnits="userSpaceOnUse" x1="26.76" y1="142.355" x2="381.05" y2="142.355" gradientTransform="matrix(1 0 0 -1 0 652)">
	<stop  offset="0" style="stop-color:#D3D6E7"/>
	<stop  offset="0.31" style="stop-color:#CACEE2"/>
	<stop  offset="0.99" style="stop-color:#BBBFD9"/>
</linearGradient>
<path class="st10" d="M33.5,418.2h340.8c3.7,0,6.7,3,6.7,6.7v169.4c0,3.7-3,6.7-6.7,6.7H33.5c-3.7,0-6.7-3-6.7-6.7V425
	C26.8,421.2,29.8,418.2,33.5,418.2z"/>
<linearGradient id="SVGID_6_" gradientUnits="userSpaceOnUse" x1="39.96" y1="143.805" x2="367.86" y2="143.805" gradientTransform="matrix(1 0 0 -1 0 652)">
	<stop  offset="1.000000e-02" style="stop-color:#BBBFD9"/>
	<stop  offset="0.69" style="stop-color:#CACEE2"/>
	<stop  offset="1" style="stop-color:#D3D6E7"/>
</linearGradient>
<path class="st11" d="M49.2,429.9h309.4c5.1,0,9.2,4.1,9.2,9.2v138.2c0,5.1-4.1,9.2-9.2,9.2H49.2c-5.1,0-9.2-4.1-9.2-9.2V439.1
	C40,434,44.1,429.9,49.2,429.9z"/>
<line class="st12" x1="143.3" y1="429.9" x2="143.3" y2="585.5"/>
<line class="st12" x1="258.8" y1="429.9" x2="258.8" y2="585.5"/>
<linearGradient id="SVGID_7_" gradientUnits="userSpaceOnUse" x1="109.6578" y1="-674.0139" x2="93.3678" y2="-645.4139" gradientTransform="matrix(0.653 0.7573 0.7573 -0.653 877.5534 74.4806)">
	<stop  offset="0" style="stop-color:#753200"/>
	<stop  offset="1" style="stop-color:#A04400"/>
</linearGradient>
<polygon class="st13" points="436.2,568.2 431.5,581 433.3,594.3 436.9,597.5 451.9,593 455.5,587.3 451.7,567.1 "/>
<linearGradient id="SVGID_8_" gradientUnits="userSpaceOnUse" x1="189.3727" y1="-714.0086" x2="173.0827" y2="-685.4085" gradientTransform="matrix(0.59 0.81 0.81 -0.59 954.73 30.75)">
	<stop  offset="0" style="stop-color:#753200"/>
	<stop  offset="1" style="stop-color:#A04400"/>
</linearGradient>
<polygon class="st14" points="491.1,569.8 486.2,578.9 484.2,593.8 489.2,599.1 504.5,595.9 508.7,590.6 506.6,570.1 "/>
<linearGradient id="SVGID_9_" gradientUnits="userSpaceOnUse" x1="-37.6396" y1="-60.6708" x2="-31.1335" y2="-60.6708" gradientTransform="matrix(0.9677 0.2521 0.2521 -0.9677 567.7255 111.7981)">
	<stop  offset="0" style="stop-color:#753200"/>
	<stop  offset="1" style="stop-color:#A04400"/>
</linearGradient>
<path class="st15" d="M519.1,167.8c1.5-2.3,3.7-8.8,4.6-10.8c-3.5-0.4-7.7,3.8-8.5,6.9C516.1,164,518.3,166.9,519.1,167.8z"/>
<linearGradient id="SVGID_10_" gradientUnits="userSpaceOnUse" x1="-106.813" y1="-112.8542" x2="-58.273" y2="-85.1142" gradientTransform="matrix(0.9677 0.2521 0.2521 -0.9677 567.7255 111.7981)">
	<stop  offset="0" style="stop-color:#753200"/>
	<stop  offset="1" style="stop-color:#A04400"/>
</linearGradient>
<path class="st16" d="M489.5,231.5c-9.9-0.9-18.6-15.1-18.6-15.1c-0.2-3.2-0.2-6.5,0-9.7l3-5.8l2.6,0.7l0.2-1.9
	c-0.8-0.1,4.1,0.9,3.1,0.6c-6.8-1.7-17.1-7.3-19.3-18.8c-1.5-8,2.2-14.8,2.8-19.4s-0.9-8-1.1-13.2c-0.3-6.6,3.3-14.5,6.7-16
	c15.5-7,40.7,4.1,40.7,4.1s8.3,4.9,2.7,22.8c1-0.5-1.3,3.2,0,3.1c2.2-0.3,4.5,0.4,6.2,1.8c3,2.9,2.3,9.1-5.2,16.9l-0.3,0.3
	c-0.4,1.7-0.7,3.4-0.9,5.2c0,0.3-0.1,0.5-0.1,0.8c-0.4,3.2-0.9,7.4-1.4,11.4c-0.7,5.8-1.1,10.8-1.3,12.7
	C508.8,216.7,499.4,232.4,489.5,231.5z"/>
<linearGradient id="SVGID_11_" gradientUnits="userSpaceOnUse" x1="-74.2156" y1="-60.3366" x2="-45.6756" y2="-41.8966" gradientTransform="matrix(0.9677 0.2521 0.2521 -0.9677 567.7255 111.7981)">
	<stop  offset="0" style="stop-color:#A04400;stop-opacity:0"/>
	<stop  offset="0.18" style="stop-color:#9A4100;stop-opacity:0.14"/>
	<stop  offset="0.52" style="stop-color:#8A3B00;stop-opacity:0.52"/>
	<stop  offset="0.9" style="stop-color:#753200"/>
</linearGradient>
<path class="st17" d="M512.3,159.8c5.6-17.9-2.7-22.8-2.7-22.8s-25.2-11.2-40.7-4.1c-2.4,1.1-3.2,4.6-4.1,7.5
	c6.3-3.9,17.8-0.6,26.9,0.8c4.4,0.7,1.8,5.1,3,5.5c10-0.6,15.8,5.1,12.4,18.7l5-2.6C511.2,162.7,513.2,159.3,512.3,159.8z"/>
<path class="st18" d="M524.3,156.1c1-3.1,1.2-6.6,1.3-11.5c0.3-10.4-5.2-16.2-15.1-20.8l-9.5-3.7c-0.9-0.3-17.1-5.8-25.9-3.3
	c-3.3,0.9-8.2,4.1-8.9,6.8c-1.7,7-2.8,10.8-2.6,16.5c7.1-13.5,10.4,5.3,32.2-4.6c4-1.8,1.9,5.1,3,5.5c11.3-0.6,17.3,6.7,10.6,24.3
	c3.1-0.9,5.3-2.1,7-1.9C519.3,161.4,523.8,157.7,524.3,156.1z"/>
<linearGradient id="SVGID_12_" gradientUnits="userSpaceOnUse" x1="-34.9757" y1="-86.3509" x2="-62.4257" y2="-113.2909" gradientTransform="matrix(0.9677 0.2521 0.2521 -0.9677 567.7255 111.7981)">
	<stop  offset="0" style="stop-color:#A04400"/>
	<stop  offset="1" style="stop-color:#753200"/>
</linearGradient>
<path class="st19" d="M512,187.9c-9.5,12.4-23.7,15.9-32.3,16.7l-2.9-2.1c-0.8-0.1,4-2,3-2.2c6.5-3.2,24.5-12.2,33.4-18.6l-0.3,0.3
	c-0.4,1.7-0.7,3.4-0.9,5.2C512,187.3,512,187.6,512,187.9z"/>
<path class="st18" d="M511.6,165c0.4-0.3,1.7-0.9,1.7-0.9l0.1-3.6l-5.5,1.9c-1.1,0.4-1.8,1.3-2,2.4l-1.5,12.3
	c-7.6,2.3-25.5,10-28.5,9.7c-3.7-0.3-3.8-5.1-6-4.6s-2.6,3.3-4,3c-0.7-0.2-4.5-4.2-5.5-6.6c0,0,0.4,8.2,0.5,9.7
	c0.4,3.4,5.5,11.4,5.5,11.4c0.5,0.9,1.4,1.5,2.4,1.6l8.7,1.2l4.9-1.5c6.8-1.9,24-11.7,24.5-13.5C510.1,176.8,507.5,167.8,511.6,165z
	"/>
<linearGradient id="SVGID_13_" gradientUnits="userSpaceOnUse" x1="-34.5311" y1="-68.9853" x2="-37.7611" y2="-72.1453" gradientTransform="matrix(0.9677 0.2521 0.2521 -0.9677 567.7255 111.7981)">
	<stop  offset="0" style="stop-color:#753200"/>
	<stop  offset="1" style="stop-color:#A04400"/>
</linearGradient>
<path class="st20" d="M512.2,168.7c0,0,2.8-3.1,4.3-0.3s-1.8,6.8-1.8,6.8L512.2,168.7z"/>
<linearGradient id="SVGID_14_" gradientUnits="userSpaceOnUse" x1="86.737" y1="79.3" x2="113.69" y2="79.3" gradientTransform="matrix(1 0 0 -1 0 652)">
	<stop  offset="0" style="stop-color:#A96E46"/>
	<stop  offset="1" style="stop-color:#FFD0B9"/>
</linearGradient>
<path class="st21" d="M113.7,554.5c-4.4,8.4-8.2,14.1-11.9,17.2c-5.3,4.4-7.2,22.3-5.6,29.4c-0.1,0-0.2,0-0.4-0.1
	c-5.7-0.7-8.1-7.9-7.5-18.4c0.3-6.9-0.2-13.8-1.5-20.6c0,0,0,0,0-0.1l12.4-17.6C103.8,548.4,106.7,552.8,113.7,554.5z"/>
<path class="st22" d="M107,611.2c0,0-18.8,1.9-24.8-2.5s-3.3-10.5-3.9-19.8s-3.6-11-3.6-11l-7.1,7.2l-3.6-3.6c0,0,5.5-8.5,10.2-14.3
	c3.3-4.1,9.4-5.1,12.6-5.3c1.3,6.8,1.9,13.7,1.5,20.6c-0.6,10.5,1.8,17.7,7.5,18.4c2.6,1.1,6.5,0.9,9.3,1.8
	C109.2,604,107,611.2,107,611.2z"/>
<linearGradient id="SVGID_15_" gradientUnits="userSpaceOnUse" x1="123.66" y1="71.98" x2="162.89" y2="71.98" gradientTransform="matrix(1 0 0 -1 0 652)">
	<stop  offset="0" style="stop-color:#A96E46"/>
	<stop  offset="1" style="stop-color:#FFD0B9"/>
</linearGradient>
<path class="st23" d="M162.9,598.7H157c-4.3,0-15.8-5.4-20.8-11.8s-7.9-6.2-7.9-6.2l-0.4-1.4l-4.4-17.8h19.2
	c1.2,5.9,3.4,15.9,5.3,21.6c2.4,7.1,11.1,13.3,13.9,15.1l0,0L162.9,598.7z"/>
<path class="st22" d="M181.6,611.8c0,0-32.7,3-34.1-1.6s-12.3-11-12.3-11v12.6h-5.9c0,0-3.8-11.7-4.1-20.7
	c-0.1-3.7,0.7-7.3,2.2-10.6c0,0,4.7-3.2,9.6,3.2s15.8,15,20.1,15h5.9l-0.9-0.5c6.2,2.3,11,5.6,15.6,6.8
	C184.9,606.7,181.6,611.8,181.6,611.8z"/>
<linearGradient id="SVGID_16_" gradientUnits="userSpaceOnUse" x1="-1139.3053" y1="40.2257" x2="-1164.1653" y2="15.8357" gradientTransform="matrix(0.9771 0.2127 0.2127 -0.9771 1439.045 484.1708)">
	<stop  offset="0" style="stop-color:#A04400"/>
	<stop  offset="1" style="stop-color:#753200"/>
</linearGradient>
<path class="st24" d="M333.8,203.7c-6.6,9.8-17.2,16.2-29,17.5l0.1-1.6l0.1-1.9c8.3-2.5,18.3-8.2,29.9-20.3l-0.2,0.3
	c-0.3,1.7-0.6,3.4-0.7,5.2C333.9,203.1,333.9,203.4,333.8,203.7z"/>
<linearGradient id="SVGID_17_" gradientUnits="userSpaceOnUse" x1="1125.9896" y1="430.6248" x2="1055.9503" y2="446.2246" gradientTransform="matrix(-1 0 0 -1 1406.6001 652)">
	<stop  offset="0" style="stop-color:#401B00"/>
	<stop  offset="1" style="stop-color:#823700"/>
</linearGradient>
<path class="st25" d="M282.4,199.4c2.6,11.3,13.1,16.5,19.9,17.9c0.6,0.1,1.3,0.2,1.8,0.3c0.3,0,0.5,0.1,0.8,0.1l-0.1,1.9l-0.2,2.4
	l-0.1,2.2l-9.3,61.6c-0.4,1.5,0.6,3.1,2.1,3.4c0.8,0.2,1.6,0,2.3-0.4c9.7-6.8,31.3-57.6,31.5-61c0,0,1-5.2,2.4-21.1
	c0.1-1,0.2-2,0.3-3.1c0-0.3,0.1-0.5,0.1-0.8c0-0.5,0.1-1.2,0.2-1.8c0.1-1.1,0.3-2.2,0.5-3.4c0.1-0.1,0.2-0.2,0.2-0.3
	c3.8-4.3,6.5-8.3,6.6-11.4c0.1-1.7,0-3.4-0.5-5c-0.6-1.9-0.8-27.5-2.5-28.5c-6.9-4.3-15.6-4.1-32.6-7.2c-8.2-1.5-14.6,2.8-18.2,5.4
	c-2.7,1.9-4,11.7-4.2,18.7l0,0c0.5,3.7,1.2,7.2,0.9,10.6C284,184.6,280.6,191.5,282.4,199.4z"/>
<linearGradient id="SVGID_18_" gradientUnits="userSpaceOnUse" x1="1067.7985" y1="449.9971" x2="1097.0585" y2="433.7372" gradientTransform="matrix(-1 0 0 -1 1406.6001 652)">
	<stop  offset="0" style="stop-color:#A04400"/>
	<stop  offset="1" style="stop-color:#3D1B00"/>
</linearGradient>
<path class="st26" d="M304.9,219.6c0,0,19.2-2.2,28.7-12.9c0.1-1,0.2-2,0.3-3.1c0-0.3,0.1-0.5,0.1-0.8c0-0.5,0.1-1.2,0.2-1.8
	c-11.6,9.4-21.5,14.3-29.9,16.6c0.3,0,0.5,0.1,0.8,0.1L304.9,219.6z"/>
<linearGradient id="SVGID_19_" gradientUnits="userSpaceOnUse" x1="-1139.3698" y1="57.5902" x2="-1146.0897" y2="50.9902" gradientTransform="matrix(0.9771 0.2127 0.2127 -0.9771 1439.045 484.1708)">
	<stop  offset="0" style="stop-color:#A04400"/>
	<stop  offset="1" style="stop-color:#3D1B00"/>
</linearGradient>
<path class="st27" d="M333.3,184.6c0,0,2.7-3.2,4.2-0.5s-1.5,6.9-1.5,6.9L333.3,184.6z"/>
<linearGradient id="SVGID_20_" gradientUnits="userSpaceOnUse" x1="1056.2861" y1="49.7633" x2="1053.2661" y2="91.8133" gradientTransform="matrix(-1 0 0 -1 1406.6001 652)">
	<stop  offset="0" style="stop-color:#823700"/>
	<stop  offset="1" style="stop-color:#401B00"/>
</linearGradient>
<path class="st28" d="M359.1,603.8c-1,2-19-2.9-19-2.9l0.4-1.8l5.2-22.5c0.2-6.6-0.2-13.3-1.4-19.8c5.3,2.9,16.9,0.8,16.9,0.8
	s-1.1,7.6,0.2,10.1c0.3,0.5,0.4,1.1,0.6,1.7c0.7,3.9,0.8,7.9,0.1,11.9c-0.5,2.5-1.1,10.1-1.8,15.8l0,0
	C360,599.3,359.7,601.6,359.1,603.8z"/>
<path class="st22" d="M360.5,596L360.5,596c-0.1,0.4-0.2,0.8-0.3,1.1c0.7-5.7,1.4-13.3,1.8-15.8c0.6-3.9,0.6-8-0.1-11.9
	c1.7,1.8,2.7,4.3,2.5,6.8C364.3,580.1,362,590.8,360.5,596z"/>
<path class="st22" d="M360.6,607.2c-1.7,5.1-9.3,9.8-15.7,9c-5.9-0.8-10.2-9.3-4.5-17.1l-0.4,1.8c0,0,18,4.8,19,2.9
	c0.6-2.2,1-4.5,1.2-6.8l0,0c0.1-0.3,0.8-6.5,1-6.9C361.8,593.8,361.6,604.4,360.6,607.2z"/>
<linearGradient id="SVGID_21_" gradientUnits="userSpaceOnUse" x1="1112.4338" y1="93.8322" x2="1119.5039" y2="47.7521" gradientTransform="matrix(-1 0 0 -1 1406.6001 652)">
	<stop  offset="0" style="stop-color:#401B00"/>
	<stop  offset="1" style="stop-color:#823700"/>
</linearGradient>
<path class="st29" d="M277.4,597.6c0,1.5,8,5.3,10,6s6.1-2.2,5.9-7.6s9.6-27.5,10.1-28.9c0.4-1-0.5-2-1-2.5
	c-0.2-0.2-0.3-0.3-0.3-0.3l1.3-6.6l-18.1-3.8c0,0-1.2,10.5-1.8,13.4s-0.5,8.1-1.5,13.4c-0.9,4.8-4,13.6-4.6,16.3
	C277.5,597.2,277.4,597.4,277.4,597.6z"/>
<path class="st22" d="M268.7,612.2c2.7,1.8,14.8-1,20.6-2.3s6.1-11,6.5-14.6c0.1-1.7,2.1-5.3,4.5-9.2l0,0c1.5-2.5,3.2-5.1,4.7-7.3
	l0,0c0.6-0.9,1.2-1.8,1.7-2.5c0.8-1.2,1.1-2.8,0.7-4.2c-1.1-4.2-3.1-6.4-4.8-7.4c0.5,0.5,1.4,1.5,1,2.5
	c-0.5,1.3-10.3,23.4-10.1,28.9s-3.9,8.3-5.9,7.6s-10-4.5-10-6c0-0.2,0-0.4,0.1-0.6C273.6,601.3,266.5,610.7,268.7,612.2z"/>
<path class="st22" d="M299.8,599.9h2.2l3-21.2c-1.5,2.2-3.2,4.8-4.7,7.3l0,0L299.8,599.9z"/>
<linearGradient id="SVGID_22_" gradientUnits="userSpaceOnUse" x1="1011.77" y1="209.36" x2="1147.01" y2="209.36" gradientTransform="matrix(-1 0 0 -1 1406.6001 652)">
	<stop  offset="5.000000e-02" style="stop-color:#F7E5E3"/>
	<stop  offset="1" style="stop-color:#F7D6D2"/>
</linearGradient>
<path class="st30" d="M285.3,325.6C271,368.6,275.1,456,275.1,456l8.4,104.4H306c5.5-63.1-1.7-101-1.7-101l8.1-69.3l11.2,70.6
	l18.5,99.7H365c0.7-16.8-3.7-58.9-12.5-103c6.7-39,8.4-48.5,5.7-82s-19.5-50.5-19.5-50.5L285.3,325.6z"/>
<path class="st22" d="M332.6,225.3l-17.5,13.4l-15.5,43.7v66.6l51.6-5.5l-9.4-22.7l8.3-42.1l22.2,37.3l-9.4,25.6l14.8,13.5
	l20.4-38.4C398.1,316.8,390.5,250.2,332.6,225.3z"/>
<path class="st22" d="M303.7,223.3l0.4,2l1.8,9.2l-6.3,48v66.6l-25.1-3c0,0,13-41.7,10.8-46.1s-6.7-18.8-6.7-18.8l-30.5,23.4
	c-2.2,1.7-5.3,1.2-7-1c-0.6-0.8-0.9-1.7-1-2.6l-1.4-18.4c0,0,41.2-29.5,44.3-44.8C299.7,226.6,303.7,223.3,303.7,223.3z"/>
<linearGradient id="SVGID_23_" gradientUnits="userSpaceOnUse" x1="1031.1699" y1="292.12" x2="1052.0299" y2="292.12" gradientTransform="matrix(-1 0 0 -1 1406.6001 652)">
	<stop  offset="0" style="stop-color:#401B00"/>
	<stop  offset="1" style="stop-color:#823700"/>
</linearGradient>
<path class="st31" d="M365,343.6l-4.6,8.5l-5.8,3l3.7,21c0,0,7.8-4.8,9.9-8.9s1.2-5.7,1.2-5.7l6.1-8.5L365,343.6z"/>
<linearGradient id="SVGID_24_" gradientUnits="userSpaceOnUse" x1="1064.7201" y1="398.09" x2="1106.9202" y2="398.09" gradientTransform="matrix(-1 0 0 -1 1406.6001 652)">
	<stop  offset="0" style="stop-color:#201F4F"/>
	<stop  offset="0.26" style="stop-color:#27275A"/>
	<stop  offset="0.72" style="stop-color:#393C76"/>
	<stop  offset="1" style="stop-color:#464B8B"/>
</linearGradient>
<polygon class="st32" points="332.6,225.3 341.9,225.3 341.1,236.6 326.7,241.5 328.1,250.2 299.7,282.5 315.1,238.8 "/>
<linearGradient id="SVGID_25_" gradientUnits="userSpaceOnUse" x1="90.39" y1="190.83" x2="191.4849" y2="190.83" gradientTransform="matrix(1 0 0 -1 0 652)">
	<stop  offset="9.000000e-02" style="stop-color:#D9D9D9"/>
	<stop  offset="0.12" style="stop-color:#D6D6D6"/>
	<stop  offset="0.7" style="stop-color:#AEAEAE"/>
	<stop  offset="1" style="stop-color:#9F9F9F"/>
</linearGradient>
<path class="st33" d="M176.6,352.9c-4.7,1.7-4.9-1.2-18.1,1.7c-3.4,0.8-6.8,4.6-10.6,4.8c-22.7,1.2-36.1-5.5-46.4-8.7
	c-3.4,8-9.9,35.6-2.9,65.9c8.6,37.2,11.1,69.7,15,96.8c-13.3,22.5-23.2,41.3-23.2,41.3c1.8,2.6,3.9,4.9,6.2,7
	c2.9,2.6,6.4,4.5,10.1,5.5c1,0.3,2.1,0.4,3.2,0.5c1.6-5,5.2-11.4,10-18.5c1.5,7.6,3.5,15.1,5.8,22.5h20.2c0,0-4.1-20.9-6.8-47.8
	c25.2-30.7,43-45,49.9-57.5C198.2,449.8,178.7,380.9,176.6,352.9z M158.9,459c-8.1,7.9-16.8,12.7-22.2,22.2
	c0.2-12.4,1.5-64.7,6.5-85.7C145.7,412.6,153.3,430,158.9,459z"/>
<path class="st34" d="M182.8,350.5c-7.8,3.2-15.8,5.7-24,7.5c-3.6,0.8-7.2,1.2-10.8,1.4c-22.7,1.2-42.1-6.5-52.4-9.7
	c2.2-5.4,14.6-39.7,13.6-46.6c3,3-1.2,1.2,2.1,2.5l0.6,0.2c15.9,5.9,28,6.8,38.6-2.8c2.6-2.3,4.8-4.4,6.7-6.3
	c5.1,0.2,10.2-0.1,15.2-1c-0.3,2.1-2.4,9.9-0.6,18.8C174.5,327.5,181.7,347.4,182.8,350.5z"/>
<path class="st18" d="M510.2,593.4c0,0,4.6,2-4.1,22c-2,4.7-11.2,7.5-20.1,7.2s-12.8-1.6-13.4-4.1s4.7-10.5,4.7-10.5L510.2,593.4z"
	/>
<linearGradient id="SVGID_26_" gradientUnits="userSpaceOnUse" x1="1654.2003" y1="53.9947" x2="1689.5294" y2="53.9947" gradientTransform="matrix(-1 0 0 -1 2164.3701 652)">
	<stop  offset="0" style="stop-color:#A7A5EE"/>
	<stop  offset="0.44" style="stop-color:#9D9CE8"/>
	<stop  offset="0.89" style="stop-color:#8988D5"/>
</linearGradient>
<path class="st35" d="M510.1,591.4c0,0,0.1-4.2-1.9-5.2c-0.9,5-3.3,1.1-6.1-1.7c-2.4-2.5-3.4-4.5-7.9-4.8s-6,3.4-7.9,4.8
	c-3.4,2.6-3.5,1.1-4.5,4.9c-1,3.4-3.9,15.8-6.5,20.7c-0.6,1.1-0.5,2.5,0.4,3.5c4.2,4.2,13.9,2.7,19.1,1.8c6-1,11.4-4.7,13.7-12.7
	S510.1,591.4,510.1,591.4z"/>
<path class="st18" d="M457.6,596.8v5.7c0,2-1.5,3.8-3.5,4c-4,0.6-10.5,1.5-14,2.2c-5.4,1-18.1,5.7-25.4,6.2s-15.4,0.6-19-1.7
	s-2.8-7.8-2.8-7.8L457.6,596.8z"/>
<linearGradient id="SVGID_27_" gradientUnits="userSpaceOnUse" x1="1706.6129" y1="59.6987" x2="1771.4623" y2="59.6987" gradientTransform="matrix(-1 0 0 -1 2164.3701 652)">
	<stop  offset="0" style="stop-color:#A7A5EE"/>
	<stop  offset="0.44" style="stop-color:#9D9CE8"/>
	<stop  offset="0.89" style="stop-color:#8988D5"/>
</linearGradient>
<path class="st36" d="M455.5,581.5c0,0,3.7,14.2,1.6,16.3s-17.8,3.1-22,5.8s-21.3,6.9-30.4,6.2s-11.6-1.9-11.9-4.3s18-5.8,21.3-8.3
	s5.2-11,9.8-14s1-8.1,5.8-8.4s3.5,7.4,10.6,7.9C445.4,582.9,450.5,582.5,455.5,581.5z"/>
<linearGradient id="SVGID_28_" gradientUnits="userSpaceOnUse" x1="-176.3532" y1="248.6559" x2="-201.3431" y2="224.1359" gradientTransform="matrix(-0.98 0.21 -0.21 -0.98 -13.58 484.96)">
	<stop  offset="0" style="stop-color:#A04400"/>
	<stop  offset="1" style="stop-color:#753200"/>
</linearGradient>
<path class="st37" d="M111.1,207.6c6.7,9.9,17.4,16.3,29.2,17.6l-0.1-1.6l-0.1-1.9c-8.4-2.5-18.4-8.3-30.1-20.4l0.2,0.3
	c0.3,1.7,0.6,3.5,0.7,5.2C111,207.1,111,207.3,111.1,207.6z"/>
<linearGradient id="SVGID_29_" gradientUnits="userSpaceOnUse" x1="137.1005" y1="436.8363" x2="67.3305" y2="452.3763" gradientTransform="matrix(1 0 0 -1 23.01 652)">
	<stop  offset="0" style="stop-color:#A96E46"/>
	<stop  offset="1" style="stop-color:#FFD0B9"/>
</linearGradient>
<path class="st38" d="M162.8,203.3c-2.6,11.4-13.2,16.6-20,18c-0.7,0.1-1.3,0.2-1.9,0.3c-0.3,0-0.5,0.1-0.8,0.1l0.1,1.9l0.2,2.4
	l0.1,2.2l2.8,34.7c0.4,1.5-0.6,3.1-2.1,3.4c-0.8,0.2-1.6,0-2.3-0.4c-9.8-6.8-25.9-23.5-26.1-26.9c0,0-0.1-12.4-1.5-28.3
	c-0.1-1-0.2-2-0.3-3.1c0-0.3-0.1-0.6-0.1-0.8c0-0.5-0.1-1.2-0.2-1.8c-0.1-1.1-0.3-2.3-0.5-3.4c-0.1-0.1-0.2-0.2-0.2-0.3
	c-1.9-2.1-3.5-4.4-4.8-6.8c-1.1-2.3-1.3-5-0.6-7.4l0,0c0.5-1.9,1.7-3.5,3.4-4.6c6.9-4.3,10-41.6,38-22.9c1.4-0.4,8.1-2.8,11.8-0.3
	c2.8,1.9,2.5,7.7,3.8,13.9l0,0c-0.5,3.7-1.2,7.3-0.9,10.6C161.2,188.4,164.6,195.4,162.8,203.3z"/>
<linearGradient id="SVGID_30_" gradientUnits="userSpaceOnUse" x1="83.0511" y1="446.0521" x2="112.4611" y2="429.7121" gradientTransform="matrix(1 0 0 -1 23.01 652)">
	<stop  offset="0" style="stop-color:#FFD0B9;stop-opacity:0"/>
	<stop  offset="1" style="stop-color:#A96E46"/>
</linearGradient>
<path class="st39" d="M140.2,223.7c0,0-19.3-2.2-28.8-12.9c-0.1-1-0.2-2-0.3-3.1c0-0.3-0.1-0.6-0.1-0.8c0-0.5-0.1-1.2-0.2-1.8
	c11.7,9.4,21.7,14.4,30.1,16.7c-0.3,0-0.5,0.1-0.8,0.1L140.2,223.7z"/>
<linearGradient id="SVGID_31_" gradientUnits="userSpaceOnUse" x1="-176.3415" y1="266.0532" x2="-183.0215" y2="259.5032" gradientTransform="matrix(-0.98 0.21 -0.21 -0.98 -13.58 484.96)">
	<stop  offset="0" style="stop-color:#A96E46"/>
	<stop  offset="1" style="stop-color:#FFD0B9"/>
</linearGradient>
<path class="st40" d="M111.6,188.5c0,0-2.7-3.2-4.2-0.5s1.5,6.9,1.5,6.9L111.6,188.5z"/>
<linearGradient id="SVGID_32_" gradientUnits="userSpaceOnUse" x1="60.3376" y1="467.9937" x2="126.0776" y2="498.4337" gradientTransform="matrix(1 0 0 -1 23.01 652)">
	<stop  offset="0.28" style="stop-color:#201F4F"/>
	<stop  offset="1" style="stop-color:#201F4F"/>
</linearGradient>
<path class="st41" d="M162.1,169.2c-0.1,1.3-0.3,2.7-0.5,4c-0.6-2.3-3.4-10.2-6-12.4c-1.8-1.5-3.3,3-5.8,1.9
	c-4.4-1.9-5-3.3-10.5-2.8c-2.2,0.8-4.5,1.5-6.8,2.1c-2.5,0.4-3.6-2.6-4.1,0s-0.6,6.2-3.6,6.2s-5,1.9-5.2,3.9s4.8,8.9,2.3,10.6
	c-2.9,1.9-5.1,9.2-5.1,9.2s-3.6-12.8-10.8-7.4c-2-6.2-1.4-7.4-1.4-14.9c0-2.6,0.6-11.1,1.3-13.8c3.6-13.9,21.8-17.5,33.6-16.7
	S163.2,156.2,162.1,169.2z"/>
<path class="st42" d="M90.9,115.2l2.4,0.5c0.4,0.1,0.8,0.4,0.9,0.8l0.3,0.7c0.2,0.5,0.7,0.8,1.2,0.8l1.8-0.1c0.7,0,1.3,0.5,1.4,1.2
	c0,0.1,0,0.3,0,0.4l-0.1,0.3c-0.2,0.7,0.2,1.4,0.9,1.6c0.1,0,0.2,0,0.2,0l1.1,0.1c0.7,0.1,1.3,0.7,1.2,1.4v0.2
	c0,0.6,0.3,1.1,0.8,1.3c1.2,0.4,2.4,0.9,3.6,1.6c0.2,0.2-0.3,1.4-0.8,2.3c-0.3,0.6,0,1.3,0.6,1.6c1.2,0.7,2.9,1.8,2.7,2.3
	c-0.8,1-1.6,1.9-2.6,2.7c-0.5,0.5-0.5,1.3,0,1.7c0.1,0.1,0.2,0.1,0.2,0.2l1.8,1.1c0.6,0.4,0.8,1.1,0.4,1.7c0,0.1-0.1,0.1-0.1,0.2
	l-1.7,1.7c-0.5,0.5-0.4,1.3,0,1.7c0,0,0.1,0,0.1,0.1l2,1.7c0.5,0.4,0.6,1,0.3,1.6l-1.5,2.7c-0.2,0.3-0.2,0.7,0,1.1l1.7,3.6"/>
<path class="st42" d="M92.4,123.8l2.4-0.5c0.4-0.1,0.9,0.1,1.2,0.3l0.6,0.5c0.4,0.4,1,0.5,1.5,0.2l1.6-0.8c0.7-0.3,1.4,0,1.7,0.6
	c0.1,0.1,0.1,0.2,0.1,0.4v0.3c0.1,0.7,0.7,1.2,1.4,1.1c0.1,0,0.2,0,0.3-0.1l1-0.3c0.7-0.2,1.4,0.1,1.6,0.8l0.1,0.2
	c0.2,0.5,0.7,0.9,1.3,0.9c1.3-0.1,2.6,0,3.9,0.1c0.2,0.1,0.2,1.4,0.2,2.4c0,0.7,0.5,1.2,1.1,1.3c1.4,0.2,3.4,0.6,3.3,1.1
	c-0.3,1.2-0.8,2.3-1.4,3.4c-0.3,0.6,0,1.3,0.7,1.6c0.1,0,0.2,0.1,0.3,0.1l2.1,0.4c0.7,0.1,1.2,0.7,1.1,1.4c0,0.1,0,0.2-0.1,0.3
	l-1,2.2c-0.2,0.6,0.1,1.3,0.7,1.6c0,0,0.1,0,0.1,0l2.6,0.8c0.6,0.2,0.9,0.7,0.9,1.3l-0.3,3.1c0,0.4,0.1,0.7,0.4,1l2.9,2.7"/>
<path class="st42" d="M101.2,110.5l2.4,0.5c0.4,0.1,0.8,0.4,0.9,0.8l0.3,0.7c0.2,0.5,0.7,0.8,1.2,0.8l1.8-0.1c0.7,0,1.3,0.5,1.4,1.2
	c0,0.1,0,0.3,0,0.4l-0.1,0.3c-0.2,0.7,0.2,1.4,0.9,1.6c0.1,0,0.2,0,0.2,0l1.1,0.1c0.7,0.1,1.3,0.7,1.2,1.4v0.2
	c0,0.6,0.3,1.1,0.8,1.3c1.2,0.4,2.4,0.9,3.6,1.6c0.2,0.2-0.3,1.4-0.8,2.3c-0.3,0.6,0,1.3,0.6,1.6c1.2,0.7,2.9,1.8,2.7,2.3
	c-0.8,1-1.6,1.9-2.6,2.7c-0.5,0.5-0.5,1.3,0,1.7c0.1,0.1,0.2,0.1,0.2,0.2l1.8,1.1c0.6,0.4,0.8,1.1,0.4,1.7c0,0.1-0.1,0.1-0.1,0.2
	l-1.7,1.7c-0.5,0.5-0.4,1.3,0,1.7c0,0,0.1,0,0.1,0.1l2,1.7c0.5,0.4,0.6,1,0.3,1.6l-1.5,2.7c-0.2,0.3-0.2,0.7,0,1.1l1.7,3.6"/>
<path class="st42" d="M110.5,108.5l2.1,1.2c0.4,0.2,0.6,0.6,0.6,1l0.1,0.8c0,0.5,0.4,1,0.9,1.2l1.7,0.5c0.7,0.2,1.1,0.9,0.9,1.6
	c0,0.1-0.1,0.3-0.2,0.4l-0.2,0.3c-0.4,0.6-0.3,1.4,0.3,1.8c0.1,0,0.1,0.1,0.2,0.1l1,0.4c0.7,0.3,1,1,0.7,1.7l-0.1,0.2
	c-0.2,0.5-0.1,1.1,0.4,1.5c1,0.8,2,1.7,2.9,2.7c0.1,0.2-0.8,1.2-1.5,1.9c-0.4,0.5-0.4,1.2,0,1.7c0.9,1,2.2,2.7,1.7,3.1
	c-1,0.7-2.2,1.2-3.3,1.7c-0.6,0.3-0.9,1-0.6,1.6c0,0.1,0.1,0.2,0.2,0.3l1.3,1.7c0.4,0.5,0.4,1.3-0.2,1.7c-0.1,0.1-0.1,0.1-0.2,0.1
	l-2.2,1c-0.6,0.3-0.8,1.1-0.5,1.7c0,0,0,0.1,0.1,0.1l1.4,2.3c0.3,0.5,0.2,1.2-0.2,1.6l-2.3,2.1c-0.3,0.3-0.4,0.6-0.4,1l0.4,4"/>
<path class="st42" d="M130.4,109.5L128,110c-0.4,0.1-0.8,0.4-0.9,0.8l-0.3,0.7c-0.2,0.5-0.7,0.8-1.2,0.8l-1.8-0.1
	c-0.7,0-1.3,0.5-1.4,1.2c0,0.1,0,0.3,0,0.4l0.1,0.3c0.2,0.7-0.2,1.4-0.9,1.6c-0.1,0-0.2,0-0.2,0l-1.1,0.1c-0.7,0.1-1.3,0.7-1.2,1.4
	v0.2c0,0.6-0.3,1.1-0.8,1.3c-1.2,0.4-2.4,0.9-3.6,1.6c-0.2,0.2,0.3,1.4,0.8,2.3c0.3,0.6,0,1.3-0.6,1.6c-1.2,0.7-2.9,1.8-2.7,2.3
	c0.8,1,1.6,1.9,2.6,2.7c0.5,0.5,0.5,1.3,0,1.7c-0.1,0.1-0.2,0.1-0.2,0.2l-1.8,1.1c-0.6,0.4-0.8,1.1-0.4,1.7c0,0.1,0.1,0.1,0.1,0.2
	l1.7,1.7c0.5,0.5,0.4,1.3,0,1.7c0,0-0.1,0-0.1,0.1l-2,1.7c-0.5,0.4-0.6,1-0.3,1.6l1.5,2.7c0.2,0.3,0.2,0.7,0,1.1l-1.7,3.6"/>
<path class="st42" d="M121.1,107.5l-2.1,1.2c-0.4,0.2-0.6,0.6-0.6,1l-0.1,0.8c0,0.5-0.4,1-0.9,1.2l-1.7,0.5
	c-0.7,0.2-1.1,0.9-0.9,1.6c0,0.1,0.1,0.3,0.2,0.4l0.2,0.3c0.4,0.6,0.3,1.4-0.3,1.8c-0.1,0-0.1,0.1-0.2,0.1l-1,0.4
	c-0.7,0.3-1,1-0.7,1.7l0.1,0.2c0.2,0.5,0.1,1.1-0.4,1.5c-1,0.8-2,1.7-2.9,2.7c-0.1,0.2,0.8,1.2,1.5,1.9c0.4,0.5,0.4,1.2,0,1.7
	c-0.9,1-2.2,2.6-1.7,3.1c1,0.7,2.2,1.2,3.3,1.7c0.6,0.3,0.9,1,0.6,1.6c0,0.1-0.1,0.2-0.2,0.3l-1.3,1.7c-0.4,0.5-0.4,1.3,0.2,1.7
	c0.1,0.1,0.1,0.1,0.2,0.1l2.2,1c0.6,0.3,0.8,1.1,0.5,1.7c0,0,0,0.1-0.1,0.1l-1.4,2.3c-0.3,0.5-0.2,1.2,0.2,1.6l2.3,2.1
	c0.3,0.3,0.4,0.6,0.4,1l-0.4,4"/>
<path class="st42" d="M141.3,117l-2.4,0.5c-0.4,0.1-0.8,0.4-0.9,0.8l-0.3,0.7c-0.2,0.5-0.7,0.8-1.2,0.8l-1.8-0.1
	c-0.7,0-1.3,0.5-1.4,1.2c0,0.1,0,0.3,0,0.4l0.1,0.3c0.2,0.7-0.2,1.4-0.9,1.6c-0.1,0-0.2,0-0.2,0l-1.1,0.1c-0.7,0.1-1.3,0.7-1.2,1.4
	v0.2c0,0.6-0.3,1.1-0.8,1.3c-1.2,0.4-2.4,0.9-3.6,1.6c-0.2,0.2,0.3,1.4,0.8,2.3c0.3,0.6,0,1.3-0.6,1.6c-1.2,0.7-2.9,1.8-2.7,2.3
	c0.8,1,1.6,1.9,2.6,2.7c0.5,0.5,0.5,1.3,0,1.7c-0.1,0.1-0.2,0.1-0.2,0.2l-1.8,1.1c-0.6,0.4-0.8,1.1-0.4,1.7c0,0.1,0.1,0.1,0.1,0.2
	l1.7,1.7c0.5,0.5,0.4,1.3,0,1.7c0,0-0.1,0-0.1,0.1l-2,1.8c-0.5,0.4-0.6,1-0.3,1.6l1.5,2.7c0.2,0.3,0.2,0.7,0,1.1l-1.7,3.6"/>
<path class="st42" d="M134.6,112l-2.1,1.2c-0.4,0.2-0.6,0.6-0.6,1l-0.1,0.8c0,0.5-0.4,1-0.9,1.2l-1.7,0.5c-0.7,0.2-1.1,0.9-0.9,1.6
	c0,0.1,0.1,0.3,0.2,0.4l0.2,0.3c0.4,0.6,0.3,1.4-0.3,1.8c-0.1,0-0.1,0.1-0.2,0.1l-1,0.4c-0.7,0.3-1,1-0.7,1.7l0.1,0.2
	c0.2,0.5,0.1,1.1-0.4,1.5c-1,0.8-2,1.7-2.9,2.7c-0.1,0.2,0.8,1.2,1.5,1.9c0.4,0.5,0.4,1.2,0,1.7c-0.9,1-2.2,2.6-1.7,3.1
	c1,0.7,2.2,1.2,3.3,1.7c0.6,0.3,0.9,1,0.6,1.6c0,0.1-0.1,0.2-0.2,0.3l-1.3,1.7c-0.4,0.5-0.4,1.3,0.2,1.7c0.1,0.1,0.1,0.1,0.2,0.1
	l2.2,1c0.6,0.3,0.8,1.1,0.5,1.7c0,0,0,0.1-0.1,0.1l-1.4,2.3c-0.3,0.5-0.2,1.2,0.2,1.6l2.3,2.1c0.3,0.3,0.4,0.6,0.4,1l-0.4,4"/>
<path class="st42" d="M147,122.4l-2.4,0.5c-0.4,0.1-0.8,0.4-0.9,0.8l-0.3,0.7c-0.2,0.5-0.7,0.8-1.2,0.8l-1.8-0.1
	c-0.7,0-1.3,0.5-1.4,1.2c0,0.1,0,0.3,0,0.4l0.1,0.3c0.2,0.7-0.2,1.4-0.9,1.6c-0.1,0-0.2,0-0.2,0l-1.1,0.1c-0.7,0.1-1.3,0.7-1.2,1.4
	v0.2c0,0.6-0.3,1.1-0.8,1.3c-1.2,0.4-2.4,0.9-3.6,1.6c-0.2,0.2,0.4,1.4,0.8,2.3c0.3,0.6,0,1.3-0.6,1.6c-1.2,0.7-2.9,1.8-2.6,2.3
	c0.8,1,1.6,1.9,2.6,2.7c0.5,0.5,0.5,1.3,0,1.7c-0.1,0.1-0.2,0.1-0.2,0.2l-1.8,1.1c-0.6,0.4-0.8,1.1-0.4,1.7c0,0.1,0.1,0.1,0.1,0.2
	l1.7,1.7c0.5,0.5,0.4,1.3,0,1.7c0,0-0.1,0-0.1,0.1l-2,1.7c-0.5,0.4-0.6,1-0.3,1.6l1.5,2.7c0.2,0.3,0.2,0.7,0,1.1l-1.7,3.6"/>
<path class="st42" d="M149.4,131.6l-2.4-0.7c-0.4-0.1-0.9,0-1.2,0.2l-0.6,0.5c-0.4,0.3-1,0.4-1.5,0.1l-1.5-0.9
	c-0.6-0.4-1.4-0.2-1.8,0.5c-0.1,0.1-0.1,0.2-0.1,0.4l-0.1,0.3c-0.2,0.7-0.9,1.1-1.6,1c-0.1,0-0.2,0-0.2-0.1l-1-0.4
	c-0.7-0.3-1.4,0-1.7,0.6l-0.1,0.2c-0.2,0.5-0.8,0.8-1.4,0.7c-1.3-0.2-2.6-0.3-3.9-0.3c-0.2,0.1-0.4,1.4-0.4,2.4
	c-0.1,0.7-0.6,1.2-1.2,1.2c-1.4,0-3.4,0.2-3.4,0.8c0.2,1.2,0.5,2.4,1,3.6c0.2,0.6-0.2,1.3-0.8,1.5c-0.1,0-0.2,0-0.3,0.1l-2.1,0.2
	c-0.7,0-1.2,0.6-1.2,1.3c0,0.1,0,0.2,0,0.3l0.7,2.3c0.2,0.7-0.2,1.3-0.9,1.5c0,0-0.1,0-0.1,0l-2.6,0.6c-0.6,0.1-1,0.6-1,1.2v3.1
	c0,0.4-0.2,0.8-0.5,1l-3.2,2.4"/>
<path class="st42" d="M137.7,120.4l-2.1,1.2c-0.4,0.2-0.6,0.6-0.6,1l-0.1,0.8c0,0.5-0.4,1-0.9,1.2l-1.7,0.5
	c-0.7,0.2-1.1,0.9-0.9,1.6c0,0.1,0.1,0.3,0.2,0.4l0.2,0.3c0.4,0.6,0.3,1.4-0.3,1.8c-0.1,0-0.1,0.1-0.2,0.1l-1,0.4
	c-0.7,0.3-1,1-0.7,1.7l0.1,0.2c0.2,0.5,0.1,1.1-0.4,1.5c-1,0.8-2,1.7-2.9,2.6c-0.1,0.2,0.8,1.2,1.5,1.9c0.4,0.5,0.4,1.2,0,1.7
	c-0.9,1-2.2,2.6-1.7,3.1c1,0.7,2.2,1.2,3.3,1.7c0.6,0.3,0.9,1,0.6,1.6c0,0.1-0.1,0.2-0.2,0.3l-1.3,1.7c-0.4,0.5-0.4,1.3,0.2,1.7
	c0.1,0.1,0.1,0.1,0.2,0.1l2.2,1c0.6,0.3,0.8,1.1,0.5,1.7c0,0,0,0.1-0.1,0.1l-1.4,2.3c-0.3,0.5-0.2,1.2,0.2,1.6l2.3,2.1
	c0.3,0.3,0.4,0.6,0.4,1l-0.4,4"/>
<path class="st42" d="M98.8,116.3l2.4-0.5c0.4-0.1,0.9,0.1,1.2,0.3l0.6,0.5c0.4,0.4,1,0.5,1.5,0.2l1.6-0.8c0.7-0.3,1.4,0,1.7,0.6
	c0.1,0.1,0.1,0.2,0.1,0.4v0.3c0.1,0.7,0.7,1.2,1.4,1.1c0.1,0,0.2,0,0.3-0.1l1-0.3c0.7-0.2,1.4,0.1,1.6,0.8l0.1,0.2
	c0.2,0.5,0.7,0.9,1.3,0.9c1.3-0.1,2.6,0,3.9,0.1c0.2,0.1,0.2,1.4,0.2,2.4c0,0.7,0.5,1.2,1.1,1.3c1.4,0.2,3.4,0.6,3.3,1.1
	c-0.3,1.2-0.8,2.3-1.4,3.4c-0.3,0.6,0,1.3,0.7,1.6c0.1,0,0.2,0.1,0.3,0.1l2.1,0.4c0.7,0.1,1.2,0.7,1.1,1.4c0,0.1,0,0.2-0.1,0.3
	l-1,2.2c-0.2,0.6,0.1,1.3,0.7,1.6c0,0,0.1,0,0.1,0l2.6,0.8c0.6,0.2,0.9,0.7,0.9,1.3l-0.3,3.1c0,0.4,0.1,0.7,0.4,1l2.9,2.7"/>
<path class="st42" d="M86.3,128.7l2.4-0.5c0.4-0.1,0.9,0,1.2,0.3l0.6,0.5c0.4,0.4,1,0.5,1.5,0.2l1.6-0.8c0.7-0.3,1.4,0,1.7,0.6
	c0.1,0.1,0.1,0.2,0.1,0.4v0.3c0.1,0.7,0.7,1.2,1.5,1.1c0.1,0,0.2,0,0.2-0.1l1-0.3c0.7-0.2,1.4,0.1,1.6,0.8l0.1,0.2
	c0.2,0.5,0.7,0.9,1.3,0.9c1.3-0.1,2.6-0.1,3.9,0.1c0.2,0.1,0.2,1.4,0.2,2.4c0,0.7,0.5,1.2,1.1,1.3c1.4,0.2,3.4,0.5,3.3,1.1
	c-0.3,1.2-0.8,2.3-1.4,3.4c-0.3,0.6,0,1.3,0.7,1.6c0.1,0,0.2,0.1,0.3,0.1l2.1,0.4c0.7,0.1,1.2,0.7,1.1,1.4c0,0.1,0,0.2-0.1,0.3
	l-0.9,2.2c-0.2,0.6,0.1,1.3,0.7,1.6c0,0,0.1,0,0.1,0l2.6,0.8c0.6,0.2,0.9,0.7,0.9,1.3l-0.3,3.1c0,0.4,0.1,0.7,0.4,1l2.9,2.7"/>
<path class="st42" d="M86.3,135l2.1-1.4c0.4-0.2,0.8-0.3,1.2-0.1l0.7,0.3c0.5,0.2,1.1,0.1,1.4-0.3l1.2-1.3c0.5-0.5,1.3-0.6,1.8-0.1
	c0.1,0.1,0.2,0.2,0.3,0.3l0.2,0.3c0.3,0.6,1.1,0.9,1.8,0.5c0.1,0,0.2-0.1,0.2-0.2l0.8-0.7c0.5-0.5,1.4-0.4,1.8,0.1l0.2,0.2
	c0.4,0.4,1,0.6,1.5,0.3c1.2-0.6,2.4-1,3.7-1.4c0.2,0,0.8,1.2,1.1,2.2c0.2,0.6,0.9,0.9,1.5,0.8c1.3-0.4,3.3-0.8,3.5-0.2
	c0.1,1.2,0.1,2.5,0,3.7c0,0.7,0.5,1.2,1.2,1.2c0.1,0,0.2,0,0.3,0l2.1-0.4c0.7-0.2,1.3,0.2,1.5,0.9c0,0.1,0,0.2,0,0.2v2.4
	c0,0.7,0.6,1.2,1.3,1.2c0,0,0.1,0,0.1,0l2.7-0.2c0.6-0.1,1.1,0.3,1.3,0.9l0.9,3c0.1,0.4,0.4,0.7,0.8,0.8l3.7,1.4"/>
<path class="st42" d="M87.5,142.8l1.6-1.8c0.3-0.3,0.7-0.5,1.1-0.4l0.8,0.1c0.5,0.1,1.1-0.2,1.3-0.7l0.8-1.6
	c0.3-0.6,1.1-0.9,1.8-0.5c0.1,0.1,0.2,0.1,0.3,0.2l0.2,0.2c0.5,0.5,1.3,0.5,1.8,0c0.1-0.1,0.1-0.1,0.2-0.2l0.6-0.9
	c0.4-0.6,1.2-0.7,1.8-0.4l0.2,0.1c0.5,0.3,1.1,0.3,1.5-0.1c1-0.9,2-1.6,3.2-2.3c0.2,0,1,1,1.6,1.8c0.4,0.5,1.1,0.7,1.7,0.3
	c1.2-0.7,3-1.6,3.3-1.1c0.5,1.2,0.8,2.3,1,3.6c0.2,0.7,0.8,1.1,1.5,0.9c0.1,0,0.2-0.1,0.3-0.1l1.9-0.9c0.6-0.3,1.4-0.1,1.7,0.5
	c0,0.1,0.1,0.2,0.1,0.2l0.6,2.4c0.2,0.7,0.9,1,1.5,0.8c0,0,0.1,0,0.1,0l2.5-0.9c0.6-0.2,1.2,0,1.5,0.5l1.6,2.6
	c0.2,0.3,0.5,0.5,0.9,0.6l4,0.4"/>
<path class="st42" d="M85.7,155l1.1-2.2c0.2-0.4,0.6-0.7,1-0.7l0.8-0.1c0.5-0.1,1-0.5,1.1-1l0.3-1.8c0.1-0.7,0.8-1.2,1.5-1
	c0.1,0,0.3,0.1,0.4,0.1l0.3,0.2c0.6,0.4,1.4,0.1,1.8-0.5c0-0.1,0.1-0.2,0.1-0.2l0.3-1c0.2-0.7,1-1,1.6-0.8l0.2,0.1
	c0.5,0.2,1.1,0,1.5-0.5c0.7-1.1,1.5-2.1,2.4-3.1c0.2-0.1,1.3,0.7,2.1,1.3c0.5,0.4,1.3,0.3,1.7-0.1c1-1,2.4-2.4,2.9-2
	c0.8,1,1.4,2,1.9,3.2c0.3,0.6,1.1,0.8,1.7,0.4c0.1-0.1,0.2-0.1,0.2-0.2l1.5-1.4c0.5-0.5,1.3-0.5,1.8,0c0.1,0.1,0.1,0.1,0.2,0.2
	l1.2,2.1c0.4,0.6,1.1,0.7,1.7,0.4c0,0,0.1,0,0.1-0.1l2.2-1.6c0.5-0.4,1.1-0.3,1.6,0.1l2.3,2.1c0.3,0.2,0.6,0.3,1,0.3l3.9-0.7"/>
<path class="st42" d="M87.9,163.8l1.1-2.2c0.2-0.4,0.6-0.7,1-0.7l0.8-0.1c0.5-0.1,1-0.5,1.1-1l0.3-1.8c0.1-0.7,0.8-1.2,1.5-1
	c0.1,0,0.3,0.1,0.4,0.1l0.3,0.2c0.6,0.4,1.4,0.1,1.8-0.5c0-0.1,0.1-0.2,0.1-0.2l0.3-1c0.2-0.7,1-1,1.6-0.8l0.2,0.1
	c0.5,0.2,1.1,0,1.5-0.5c0.7-1.1,1.5-2.1,2.4-3.1c0.2-0.1,1.3,0.7,2.1,1.3c0.5,0.4,1.3,0.3,1.7-0.1c1-1,2.4-2.4,2.9-2
	c0.8,1,1.4,2,1.9,3.2c0.3,0.6,1.1,0.8,1.7,0.4c0.1-0.1,0.2-0.1,0.2-0.2l1.5-1.4c0.5-0.5,1.3-0.5,1.8,0c0.1,0.1,0.1,0.1,0.2,0.2
	l1.2,2.1c0.4,0.6,1.1,0.7,1.7,0.4c0,0,0.1,0,0.1-0.1l2.2-1.6c0.5-0.4,1.1-0.3,1.6,0.1l2.3,2.1c0.3,0.2,0.6,0.3,1,0.3l3.9-0.7"/>
<path class="st42" d="M94.4,171l1.1-2.2c0.2-0.4,0.6-0.7,1-0.7l0.8-0.1c0.5-0.1,1-0.5,1.1-1l0.3-1.8c0.1-0.7,0.8-1.2,1.5-1
	c0.1,0,0.3,0.1,0.4,0.1l0.3,0.2c0.6,0.4,1.4,0.1,1.8-0.5c0-0.1,0.1-0.2,0.1-0.2l0.3-1c0.2-0.7,1-1,1.6-0.8l0.2,0.1
	c0.5,0.2,1.1,0,1.5-0.5c0.7-1.1,1.5-2.1,2.4-3.1c0.2-0.1,1.3,0.7,2.1,1.3c0.5,0.4,1.3,0.3,1.7-0.1c1-1,2.4-2.4,2.9-2
	c0.8,1,1.4,2,1.9,3.2c0.3,0.6,1.1,0.8,1.7,0.4c0.1-0.1,0.2-0.1,0.2-0.2l1.5-1.4c0.5-0.5,1.3-0.5,1.8,0c0.1,0.1,0.1,0.1,0.2,0.2
	l1.2,2.1c0.4,0.6,1.1,0.7,1.7,0.4c0,0,0.1,0,0.1-0.1l2.2-1.6c0.5-0.4,1.1-0.3,1.6,0.1l2.3,2.1c0.3,0.2,0.6,0.3,1,0.3l3.9-0.7"/>
<linearGradient id="SVGID_33_" gradientUnits="userSpaceOnUse" x1="116.4447" y1="495.301" x2="123.2747" y2="532.751" gradientTransform="matrix(1 0 0 -1 0 652)">
	<stop  offset="0.28" style="stop-color:#201F4F"/>
	<stop  offset="1" style="stop-color:#201F4F"/>
</linearGradient>
<circle class="st43" cx="120" cy="137" r="22.9"/>
<linearGradient id="SVGID_34_" gradientUnits="userSpaceOnUse" x1="97.8" y1="499.53" x2="107.84" y2="499.53" gradientTransform="matrix(1 0 0 -1 0 652)">
	<stop  offset="0.28" style="stop-color:#201F4F"/>
	<stop  offset="1" style="stop-color:#201F4F"/>
</linearGradient>
<circle class="st44" cx="102.8" cy="152.5" r="5"/>
<linearGradient id="SVGID_35_" gradientUnits="userSpaceOnUse" x1="98.99" y1="490.49" x2="109.03" y2="490.49" gradientTransform="matrix(1 0 0 -1 0 652)">
	<stop  offset="0.28" style="stop-color:#201F4F"/>
	<stop  offset="1" style="stop-color:#201F4F"/>
</linearGradient>
<circle class="st45" cx="104" cy="161.5" r="5"/>
<linearGradient id="SVGID_36_" gradientUnits="userSpaceOnUse" x1="99.59" y1="481.74" x2="109.63" y2="481.74" gradientTransform="matrix(1 0 0 -1 0 652)">
	<stop  offset="0.28" style="stop-color:#201F4F"/>
	<stop  offset="1" style="stop-color:#201F4F"/>
</linearGradient>
<circle class="st46" cx="104.6" cy="170.3" r="5"/>
<linearGradient id="SVGID_37_" gradientUnits="userSpaceOnUse" x1="101.86" y1="473.34" x2="111.9" y2="473.34" gradientTransform="matrix(1 0 0 -1 0 652)">
	<stop  offset="0.28" style="stop-color:#201F4F"/>
	<stop  offset="1" style="stop-color:#201F4F"/>
</linearGradient>
<circle class="st47" cx="106.9" cy="178.7" r="5"/>
<linearGradient id="SVGID_38_" gradientUnits="userSpaceOnUse" x1="134.99" y1="511.06" x2="143.88" y2="511.06" gradientTransform="matrix(1 0 0 -1 0 652)">
	<stop  offset="0.28" style="stop-color:#201F4F"/>
	<stop  offset="1" style="stop-color:#201F4F"/>
</linearGradient>
<circle class="st48" cx="139.4" cy="140.9" r="4.4"/>
<linearGradient id="SVGID_39_" gradientUnits="userSpaceOnUse" x1="135.81" y1="517.59" x2="144.7" y2="517.59" gradientTransform="matrix(1 0 0 -1 0 652)">
	<stop  offset="0.28" style="stop-color:#201F4F"/>
	<stop  offset="1" style="stop-color:#201F4F"/>
</linearGradient>
<circle class="st49" cx="140.3" cy="134.4" r="4.4"/>
<linearGradient id="SVGID_40_" gradientUnits="userSpaceOnUse" x1="135.81" y1="524.26" x2="144.7" y2="524.26" gradientTransform="matrix(1 0 0 -1 0 652)">
	<stop  offset="0.28" style="stop-color:#201F4F"/>
	<stop  offset="1" style="stop-color:#201F4F"/>
</linearGradient>
<circle class="st50" cx="140.3" cy="127.7" r="4.4"/>
<linearGradient id="SVGID_41_" gradientUnits="userSpaceOnUse" x1="131.36" y1="529.46" x2="140.26" y2="529.46" gradientTransform="matrix(1 0 0 -1 0 652)">
	<stop  offset="0.28" style="stop-color:#201F4F"/>
	<stop  offset="1" style="stop-color:#201F4F"/>
</linearGradient>
<circle class="st51" cx="135.8" cy="122.5" r="4.4"/>
<linearGradient id="SVGID_42_" gradientUnits="userSpaceOnUse" x1="125.97" y1="533.91" x2="134.87" y2="533.91" gradientTransform="matrix(1 0 0 -1 0 652)">
	<stop  offset="0.28" style="stop-color:#201F4F"/>
	<stop  offset="1" style="stop-color:#201F4F"/>
</linearGradient>
<circle class="st52" cx="130.4" cy="118.1" r="4.4"/>
<linearGradient id="SVGID_43_" gradientUnits="userSpaceOnUse" x1="117.77" y1="535.76" x2="126.66" y2="535.76" gradientTransform="matrix(1 0 0 -1 0 652)">
	<stop  offset="0.28" style="stop-color:#201F4F"/>
	<stop  offset="1" style="stop-color:#201F4F"/>
</linearGradient>
<circle class="st53" cx="122.2" cy="116.2" r="4.4"/>
<linearGradient id="SVGID_44_" gradientUnits="userSpaceOnUse" x1="111.09" y1="535.76" x2="119.98" y2="535.76" gradientTransform="matrix(1 0 0 -1 0 652)">
	<stop  offset="0.28" style="stop-color:#201F4F"/>
	<stop  offset="1" style="stop-color:#201F4F"/>
</linearGradient>
<circle class="st54" cx="115.5" cy="116.2" r="4.4"/>
<linearGradient id="SVGID_45_" gradientUnits="userSpaceOnUse" x1="105.4" y1="533.15" x2="114.29" y2="533.15" gradientTransform="matrix(1 0 0 -1 0 652)">
	<stop  offset="0.28" style="stop-color:#201F4F"/>
	<stop  offset="1" style="stop-color:#201F4F"/>
</linearGradient>
<circle class="st55" cx="109.8" cy="118.8" r="4.4"/>
<linearGradient id="SVGID_46_" gradientUnits="userSpaceOnUse" x1="99.56" y1="530.47" x2="108.45" y2="530.47" gradientTransform="matrix(1 0 0 -1 0 652)">
	<stop  offset="0.28" style="stop-color:#201F4F"/>
	<stop  offset="1" style="stop-color:#201F4F"/>
</linearGradient>
<circle class="st56" cx="104" cy="121.5" r="4.4"/>
<linearGradient id="SVGID_47_" gradientUnits="userSpaceOnUse" x1="97.8" y1="503.75" x2="106.69" y2="503.75" gradientTransform="matrix(1 0 0 -1 0 652)">
	<stop  offset="0.28" style="stop-color:#201F4F"/>
	<stop  offset="1" style="stop-color:#201F4F"/>
</linearGradient>
<circle class="st57" cx="102.2" cy="148.2" r="4.4"/>
<linearGradient id="SVGID_48_" gradientUnits="userSpaceOnUse" x1="94.91" y1="510.16" x2="103.81" y2="510.16" gradientTransform="matrix(1 0 0 -1 0 652)">
	<stop  offset="0.28" style="stop-color:#201F4F"/>
	<stop  offset="1" style="stop-color:#201F4F"/>
</linearGradient>
<circle class="st58" cx="99.4" cy="141.8" r="4.4"/>
<linearGradient id="SVGID_49_" gradientUnits="userSpaceOnUse" x1="94.09" y1="517.59" x2="102.98" y2="517.59" gradientTransform="matrix(1 0 0 -1 0 652)">
	<stop  offset="0.28" style="stop-color:#201F4F"/>
	<stop  offset="1" style="stop-color:#201F4F"/>
</linearGradient>
<circle class="st59" cx="98.5" cy="134.4" r="4.4"/>
<linearGradient id="SVGID_50_" gradientUnits="userSpaceOnUse" x1="95.88" y1="524.26" x2="104.77" y2="524.26" gradientTransform="matrix(1 0 0 -1 0 652)">
	<stop  offset="0.28" style="stop-color:#201F4F"/>
	<stop  offset="1" style="stop-color:#201F4F"/>
</linearGradient>
<circle class="st60" cx="100.3" cy="127.7" r="4.4"/>
<path class="st18" d="M524.8,325l-46.5,11.1l-24.7-4.5c0,0-37.2,105.9-39.7,117.9s17.8,123.3,17.8,123.3h24.6c0,0,2.5-31.6,0-60.2
	s-7.3-43.6-7.3-49.6s32.8-69.2,32.8-69.2s7.7,37.7,10.8,64.7c5.3,47.6-9.4,117.8-9.4,117.8h27.5c0,0,10.1-19.2,18.7-65.9
	s-8.7-44.7,0.9-82C545.8,368.8,524.8,325,524.8,325z"/>
<linearGradient id="SVGID_51_" gradientUnits="userSpaceOnUse" x1="146.01" y1="348.9401" x2="188.63" y2="348.9401" gradientTransform="matrix(1 0 0 -1 0 652)">
	<stop  offset="0" style="stop-color:#A96E46"/>
	<stop  offset="1" style="stop-color:#FFD0B9"/>
</linearGradient>
<path class="st61" d="M177.5,310.9v0.2c-2.2,0.5-4.5,0.8-6.8,0.7c-3.6,0-18.5-2-24.7-2.9c4-2.9,21-14,21-14l4.8-0.7
	c2.1,1.5,4.8,3.8,5.6,6.5C178.8,304.7,177.7,309.9,177.5,310.9z"/>
<path class="st34" d="M186.5,309.7c-2.9,1.1-5.9,1.5-9,1.3c0.2-1,1.3-6.2,0-10.2c-0.9-2.6-3.6-5-5.6-6.5c1-0.2,1.8-0.3,1.9-0.3
	s8.4-1.9,11-3c1-0.4,2.2-0.5,3.2-0.2c0.3,2.4,1,7.6,1,10.1C189.1,304.3,188.4,308.8,186.5,309.7z"/>
<path class="st34" d="M179.9,271.1h-0.1c-1.2,0.2-14.6,8.3-15.4,8.6s-10.8,4.7-10.8,4.7l-12.4,7.6c-3.9,0-12.8-2.7-13.9-2.7
	c-1.2-0.1-2.4-0.4-3.4-0.9c0,0-8.9-7.8-10.6-8.9s0.2-0.7-4-2.2s-7.4-2.6-10.4-2.8c-3.1-0.3-6.2,0-9.2,0.9c-2.9,1-2.3,2.3-1.6,3.2
	s4,1,5.6,0.5s5.6,0.9,5.6,0.9c-2.7,0.1-5.3,0.6-7.8,1.4c-2.9,1.1-6.1,2-5.7,4.1s2.9,1.3,3.8,1.4c-1.7,1.5-2.5,2.1-1.7,3.6
	s3.6,0.6,3.8,0.5c0,0.2-0.7,2.4,2.6,2.6s9.5,0,11.6,1s5.6,3.2,5.6,3.2l12.7-3.3h0.2c0.7,2.2,1.2,6.2,1.5,10.9
	c0.1,4.6-0.4,9.2-1.5,13.7c-3.3,1.2-10.9,3.8-15.6,2.6c-6-1.5-15.9-13.2-19.7-22s-12.3-43.1-10-51.2c4-14.4,28.3-15.3,37.3-15.3
	c5.8,0,9.3,9.2,17.5,9.2c4.5,0,6.8-10,9.5-9.8C169.9,235.3,171.8,239.7,179.9,271.1z"/>
<linearGradient id="SVGID_52_" gradientUnits="userSpaceOnUse" x1="72.37" y1="365.9013" x2="128.1293" y2="365.9013" gradientTransform="matrix(1 0 0 -1 0 652)">
	<stop  offset="0" style="stop-color:#FFD0B9"/>
	<stop  offset="1" style="stop-color:#A96E46"/>
</linearGradient>
<path class="st62" d="M141.6,289.5l-17.1,5.1h-0.2l-12.7,3.3c0,0-3.5-2.2-5.6-3.2s-8.2-0.9-11.6-1s-2.7-2.4-2.6-2.6
	c-0.2,0.1-2.9,0.9-3.8-0.5s-0.1-2.1,1.7-3.6c-1-0.1-3.4,0.7-3.8-1.4s2.8-2.9,5.7-4.1c2.5-0.8,5.2-1.3,7.8-1.4c0,0-4-1.4-5.6-0.9
	s-4.9,0.3-5.6-0.5s-1.3-2.2,1.6-3.2c3-0.9,6.1-1.2,9.2-0.9c2.9,0.2,6.1,1.4,10.4,2.8s2.3,1.1,4,2.2s10.6,8.9,10.6,8.9
	c1.1,0.5,2.2,0.8,3.4,0.9l11.2,0.1L141.6,289.5z"/>
<linearGradient id="SVGID_53_" gradientUnits="userSpaceOnUse" x1="124.57" y1="356.8962" x2="203.58" y2="356.8962" gradientTransform="matrix(1 0 0 -1 0 652)">
	<stop  offset="0" style="stop-color:#A96E46"/>
	<stop  offset="1" style="stop-color:#FFD0B9"/>
</linearGradient>
<path class="st63" d="M189.9,289.8c-0.4,0.7-1.2,1.1-2,0.9c-1.1-0.3-2.2-0.2-3.2,0.2c-2.6,1.1-10.9,2.9-11,3s-0.9,0.1-1.9,0.3
	L167,295c0,0-17,11.1-21,14l-0.1,0.1c-3.1,2.3-15.3,7.5-19.7,9.4l-0.2,0.1l-0.3,0.1l-1,0.4c1.1-4.5,1.6-9.1,1.5-13.7
	c-0.3-4.7-0.8-8.7-1.5-10.9l17.1-5.1l12-5c0,0,9.9-4.4,10.8-4.7s14.1-8.4,15.4-8.6h0.1c2-0.1,3.7,1.3,4.1,3.3c0,0.5-0.1,1-0.3,1.4
	c0,0,2.4,0,2.9,2c0.3,1.4,0.4,2.8,0.4,4.1c0,0,1.5-0.6,2.1,0.6s0.2,3.9-0.4,4.2S191.2,287.8,189.9,289.8z"/>
<linearGradient id="SVGID_54_" gradientUnits="userSpaceOnUse" x1="500.44" y1="448.898" x2="519.46" y2="448.898" gradientTransform="matrix(1 0 0 -1 0 652)">
	<stop  offset="0.11" style="stop-color:#8988D5"/>
	<stop  offset="0.56" style="stop-color:#9D9CE8"/>
	<stop  offset="1" style="stop-color:#A7A5EE"/>
</linearGradient>
<path class="st64" d="M519.5,201.5L519.5,201.5c0,1.9-1.8,16.7-4.9,13.3c-2.2-2.2-9.4-3.4-14.1-3.9c4.3-5.4,12.8-20,12.8-20
	S519.5,199.7,519.5,201.5z"/>
<linearGradient id="SVGID_55_" gradientUnits="userSpaceOnUse" x1="422.6157" y1="388.81" x2="496.51" y2="388.81" gradientTransform="matrix(1 0 0 -1 0 652)">
	<stop  offset="0" style="stop-color:#A7A5EE"/>
	<stop  offset="0.44" style="stop-color:#9D9CE8"/>
	<stop  offset="0.89" style="stop-color:#8988D5"/>
</linearGradient>
<path class="st65" d="M496.5,306.2c-0.8,1.2-18.4,8-19.5,8.5c-1.9,1-20,2.4-29.6,2.8v-0.8c0,0-14,0.2-19.6-5.2s-6.3-9.4-3.7-20.3
	s16.1-62.6,18.1-65.8s6.1-11.1,11.3-12.6c3.3-1.1,6.6-2.5,9.7-4.1c-0.7,0.8-1.1,1.4-1.1,1.7c0.1,0.8-1.9,2.8-1.7,3.4
	s-0.8,2.3-1.1,3.3c-0.4,1.2-0.7,2.4-0.8,3.6c-0.1,1.6,0.5,2.4,2.8,7.1s5,9.8,5,9.8l4.2,12.5l0.5-0.4c0.4,2.4,1.3,7.4,2.7,15
	c1.7,9.5,6.8,21.7,12.1,30.2C485.3,295.2,496.5,306.2,496.5,306.2z"/>
<linearGradient id="SVGID_56_" gradientUnits="userSpaceOnUse" x1="447.45" y1="357.1208" x2="548.74" y2="357.1208" gradientTransform="matrix(1 0 0 -1 0 652)">
	<stop  offset="0" style="stop-color:#A7A5EE"/>
	<stop  offset="0.44" style="stop-color:#9D9CE8"/>
	<stop  offset="0.89" style="stop-color:#8988D5"/>
</linearGradient>
<path class="st66" d="M548.7,242.8c-0.1,0.9-0.1,1.8-0.2,2.8c-1.3,14.1-8.9,29.2-10.8,40.7s-6.5,54.3-6.5,54.3s-49.3,9.2-63.9,5.4
	s-20-9.9-20-9.9v-18.6c9.6-0.4,27.7-1.8,29.6-2.8c1.2-0.8,2.1-1.8,2.8-3.1l14-4.9c2.7,2.9,5.6,4.6,9.6,4.8
	c7.4,0.4,24.1-21.4,27.6-29.1C533.4,277.5,542.6,256.6,548.7,242.8z"/>
<linearGradient id="SVGID_57_" gradientUnits="userSpaceOnUse" x1="458.3503" y1="427.0808" x2="485.8185" y2="427.0808" gradientTransform="matrix(1 0 0 -1 0 652)">
	<stop  offset="0" style="stop-color:#753200"/>
	<stop  offset="1" style="stop-color:#A04400"/>
</linearGradient>
<path class="st67" d="M484.5,206.2c-1.2-0.7-2.2-1.6-3-2.7c-0.5-0.8-1.1-1.2-1.7-0.8c-1-0.8-2.9-2.2-4.4-2.3c-2-0.1-3.5-1.4-4.9-0.4
	s-2,4.2-2,4.2s-0.9-0.6-2.2,1c-0.8,1-2.1,2.4-3.1,3.5c-0.7,0.8-1.1,1.4-1.1,1.7c0.1,0.8-1.9,2.8-1.7,3.4s-0.8,2.3-1.1,3.3
	c-0.4,1.2-0.7,2.4-0.8,3.6c-0.1,1.6,0.5,2.4,2.8,7.1s5,9.8,5,9.8l4.2,12.5l0.5-0.4l12.5-9.8c-1.2-2.7-2.8-7-1.4-8.1
	c2.2-1.6,3.5-10.6,3.5-10.6l0.3-0.2c0-2-0.1-5.1,0-7.3C486,210.2,485,206.4,484.5,206.2z M479.5,212.2c-0.3,1.3-0.5,3.1-1.9,2.1
	c-1.5-1.3-2.7-2.7-3.8-4.4c0-0.2,0-3.6,0-4s-0.5-1.4,0.4-1.4c1.4,0.3,2.8,0.8,4.2,1.3c0.1,0.3,0.2,0.5,0.3,0.8
	C479.8,209.4,479.8,211,479.5,212.2L479.5,212.2z"/>
<linearGradient id="SVGID_58_" gradientUnits="userSpaceOnUse" x1="479.53" y1="354.015" x2="497.49" y2="354.015" gradientTransform="matrix(1 0 0 -1 0 652)">
	<stop  offset="0" style="stop-color:#753200"/>
	<stop  offset="1" style="stop-color:#A04400"/>
</linearGradient>
<path class="st68" d="M497.5,301.8l-14,4.9l-2.9,1c0,0-1.4-6.3-0.9-10.2c0.3-2.4,8.1-9.1,8.6-9.1c0.5,0.7,1.4,2.9,1.9,3.6
	C492.3,295.4,494.8,298.7,497.5,301.8z"/>
<linearGradient id="SVGID_59_" gradientUnits="userSpaceOnUse" x1="449.38" y1="370.1464" x2="478.84" y2="370.1464" gradientTransform="matrix(1 0 0 -1 0 652)">
	<stop  offset="0" style="stop-color:#A7A5EE"/>
	<stop  offset="0.44" style="stop-color:#9D9CE8"/>
	<stop  offset="0.89" style="stop-color:#8988D5"/>
</linearGradient>
<path class="st69" d="M453.6,290.5l1.4-22.7l-5.6,25.1c0,0,4.8,1,5.3,1.2s12.9,2.1,17.4,1.7c2.4-0.2-19,0.5,6.7-1.7L453.6,290.5z"/>
<linearGradient id="SVGID_60_" gradientUnits="userSpaceOnUse" x1="470.86" y1="395.4567" x2="548.9279" y2="395.4567" gradientTransform="matrix(1 0 0 -1 0 652)">
	<stop  offset="0" style="stop-color:#A7A5EE"/>
	<stop  offset="0.44" style="stop-color:#9D9CE8"/>
	<stop  offset="0.89" style="stop-color:#8988D5"/>
</linearGradient>
<path class="st70" d="M545.9,219.5c-2-2.9-7.3-7-12.9-10.3c-4.1-2.4-10.4-5.9-13.5-7.7c0,1.9-1.8,16.7-4.9,13.3
	c-2.2-2.2-9.4-3.4-14.1-3.9c-0.5,0.7-1.1,1.3-1.8,1.8l-13,8.4l-0.3,0.2c0,0-1.3,9-3.5,10.6c-1.5,1.1,0.1,5.4,1.4,8.1l-12.5,9.8
	c0.4,2.4,1.3,7.4,2.7,15c1.9,10.3,5.7,20.3,11.1,29.3l0.4,0.7c0.5,0.7,0.9,1.4,1.4,2.1c2.2,3.4,4.7,6.7,7.4,9.8
	c2.7,2.9,5.6,4.6,9.6,4.8c7.4,0.4,24.1-21.4,27.6-29.1c2.3-5,11.5-25.9,17.7-39.7C549.6,230.3,547.8,222.2,545.9,219.5z"/>
<linearGradient id="SVGID_61_" gradientUnits="userSpaceOnUse" x1="501.16" y1="384.2095" x2="516.4301" y2="384.2095" gradientTransform="matrix(1 0 0 -1 0 652)">
	<stop  offset="0" style="stop-color:#753200"/>
	<stop  offset="1" style="stop-color:#A04400"/>
</linearGradient>
<path class="st71" d="M512.8,270.6c0,0,1.3,2,0.3,3s-3.4,3.2-3.4,3.2s-6.3-5-8.6-9.4c0.9-1,1.7-2.1,2.3-3.3c0.6-1.3,1.4-2.4,2.5-3.3
	c0.4-0.2,2.8-2.4,3.7-2s0.2,2.8,0.2,2.9c0.2-0.1,4-3.1,5.1-1c0.6,1.4,0.4,2.9-0.5,4.1c0,0,1.8-0.3,2,1.2S512.8,270.6,512.8,270.6z"
	/>
<linearGradient id="SVGID_62_" gradientUnits="userSpaceOnUse" x1="483.35" y1="398.72" x2="502.39" y2="398.72" gradientTransform="matrix(1 0 0 -1 0 652)">
	<stop  offset="0" style="stop-color:#A7A5EE"/>
	<stop  offset="0.44" style="stop-color:#9D9CE8"/>
	<stop  offset="0.89" style="stop-color:#8988D5"/>
</linearGradient>
<polygon class="st72" points="483.4,240 499.9,266.5 502.4,263.2 "/>
<linearGradient id="SVGID_63_" gradientUnits="userSpaceOnUse" x1="191.32" y1="386.1654" x2="251.86" y2="386.1654" gradientTransform="matrix(1 0 0 -1 0 652)">
	<stop  offset="0" style="stop-color:#401B00"/>
	<stop  offset="1" style="stop-color:#823700"/>
</linearGradient>
<path class="st73" d="M240.1,255.8L240.1,255.8c0-0.1,0-0.1-0.1-0.1l0,0c0.1-3-0.2-6-0.7-9c-1.4-6.9-4.8-13.3-9.6-18.4
	c-0.7-0.8-7.9-3.7-8.6-4.9s-4.1,1.5-0.7,5.4s6.3,5.6,5.7,6.1c-0.3,0.3-4.2-2.2-10.8-3.3c-9.9-1.7-17.3-1.9-17.4,0.8
	c-0.1,1.1,0.7,2.1,1.8,2.2c0.2,0,0.3,0,0.5,0c-1.5,0.1-8.9,0.9-8.9,3.2c0,2.6,5,2,5,2s-4.9,1-0.1,2.4s13.2,2.1,13.2,2.1
	s-9.3-0.4-8.6,2.2s10.2,1.1,13.7,1.8s6.6,2.2,11,5.5c1,0.7,2.1,1.5,3,2.4l0.1,1.9c-0.4,7.8-0.7,29,4.9,45.2c1.5,4.2,6.1,6.5,10.4,5
	c0.7-0.3,1.4-0.6,2-1.1c2.2-1.6,4.2-3.4,6-5.4C251.9,301.7,242.9,266.4,240.1,255.8z"/>
<linearGradient id="SVGID_64_" gradientUnits="userSpaceOnUse" x1="214.1788" y1="341.5876" x2="281.8375" y2="341.5876" gradientTransform="matrix(0.9691 0.2468 0.2468 -0.9691 -10.1814 425.2251)">
	<stop  offset="0.28" style="stop-color:#201F4F"/>
	<stop  offset="1" style="stop-color:#201F4F"/>
</linearGradient>
<path class="st74" d="M309.1,156.4c0,0-17.5-2.1-24.8,4.2c-6.8-10.4-1.6-26.2,13.4-26.6s35.2-3.9,43.4,11.5s4.3,28.5,0.4,37.5
	c-3.7-7.6-9.8-4.7-12.1,0c-4.4-7.6-7.9-15.7-10.2-24.2c0,0,14.2,1.8,14.2-1.5C333.3,155.3,317.7,159.4,309.1,156.4z"/>
</svg>
